<?xml version="1.0" encoding="UTF-8" standalone="no"?>
<svg
   class="svglite"
   width="283.45999pt"
   height="283.45999pt"
   viewBox="0 0 283.46 283.46"
   version="1.1"
   id="svg18509"
   sodipodi:docname="figure_winstaylooseshift.svg"
   inkscape:version="1.2.2 (732a01da63, 2022-12-09)"
   xmlns:inkscape="http://www.inkscape.org/namespaces/inkscape"
   xmlns:sodipodi="http://sodipodi.sourceforge.net/DTD/sodipodi-0.dtd"
   xmlns="http://www.w3.org/2000/svg"
   xmlns:svg="http://www.w3.org/2000/svg">
  <sodipodi:namedview
     id="namedview18511"
     pagecolor="#ffffff"
     bordercolor="#000000"
     borderopacity="0.25"
     inkscape:showpageshadow="2"
     inkscape:pageopacity="0.0"
     inkscape:pagecheckerboard="0"
     inkscape:deskcolor="#d1d1d1"
     inkscape:document-units="pt"
     showgrid="false"
     inkscape:zoom="2.8284271"
     inkscape:cx="610.76348"
     inkscape:cy="73.185552"
     inkscape:window-width="5120"
     inkscape:window-height="1369"
     inkscape:window-x="-8"
     inkscape:window-y="-8"
     inkscape:window-maximized="1"
     inkscape:current-layer="svg18509" />
  <defs
     id="defs18393">
    <marker
       style="overflow:visible"
       id="marker20408"
       refX="0"
       refY="0"
       orient="auto-start-reverse"
       inkscape:stockid="TriangleStart"
       markerWidth="4.9916334"
       markerHeight="5.6666179"
       viewBox="0 0 4.9916334 5.6666178"
       inkscape:isstock="true"
       inkscape:collect="always"
       preserveAspectRatio="xMidYMid">
      <path
         transform="scale(0.5)"
         style="fill:context-stroke;fill-rule:evenodd;stroke:context-stroke;stroke-width:1pt"
         d="M 5.77,0 -2.88,5 V -5 Z"
         id="path20406" />
    </marker>
    <marker
       style="overflow:visible"
       id="TriangleStart"
       refX="0"
       refY="0"
       orient="auto-start-reverse"
       inkscape:stockid="TriangleStart"
       markerWidth="4.9916334"
       markerHeight="5.6666179"
       viewBox="0 0 4.9916334 5.6666178"
       inkscape:isstock="true"
       inkscape:collect="always"
       preserveAspectRatio="xMidYMid">
      <path
         transform="scale(0.5)"
         style="fill:context-stroke;fill-rule:evenodd;stroke:context-stroke;stroke-width:1pt"
         d="M 5.77,0 -2.88,5 V -5 Z"
         id="path135" />
    </marker>
    <rect
       x="53.605862"
       y="270.37131"
       width="81.709908"
       height="18.996252"
       id="rect18632" />
    <style
       type="text/css"
       id="style18391"><![CDATA[
    .svglite line, .svglite polyline, .svglite polygon, .svglite path, .svglite rect, .svglite circle {
      fill: none;
      stroke: #000000;
      stroke-linecap: round;
      stroke-linejoin: round;
      stroke-miterlimit: 10.00;
    }
    .svglite text {
      white-space: pre;
    }
  ]]></style>
    <clipPath
       clipPathUnits="userSpaceOnUse"
       id="clipPath20551">
      <g
         id="g20555">
        <rect
           x="0"
           y="0"
           width="283.45999"
           height="283.45999"
           id="rect20553" />
      </g>
    </clipPath>
    <clipPath
       clipPathUnits="userSpaceOnUse"
       id="clipPath20557">
      <g
         id="g20561">
        <rect
           x="0"
           y="0"
           width="283.45999"
           height="283.45999"
           id="rect20559" />
      </g>
    </clipPath>
    <clipPath
       clipPathUnits="userSpaceOnUse"
       id="clipPath20563">
      <g
         id="g20567">
        <rect
           x="0"
           y="0"
           width="283.45999"
           height="283.45999"
           id="rect20565" />
      </g>
    </clipPath>
    <clipPath
       clipPathUnits="userSpaceOnUse"
       id="clipPath20569">
      <g
         id="g20573">
        <rect
           x="0"
           y="0"
           width="283.45999"
           height="283.45999"
           id="rect20571" />
      </g>
    </clipPath>
    <clipPath
       clipPathUnits="userSpaceOnUse"
       id="clipPath20575">
      <g
         id="g20579">
        <rect
           x="0"
           y="0"
           width="283.45999"
           height="283.45999"
           id="rect20577" />
      </g>
    </clipPath>
    <clipPath
       clipPathUnits="userSpaceOnUse"
       id="clipPath20581">
      <g
         id="g20585">
        <rect
           x="0"
           y="0"
           width="283.45999"
           height="283.45999"
           id="rect20583" />
      </g>
    </clipPath>
    <clipPath
       clipPathUnits="userSpaceOnUse"
       id="clipPath20587">
      <g
         id="g20591">
        <rect
           x="0"
           y="0"
           width="283.45999"
           height="283.45999"
           id="rect20589" />
      </g>
    </clipPath>
    <clipPath
       clipPathUnits="userSpaceOnUse"
       id="clipPath20593">
      <g
         id="g20597">
        <rect
           x="0"
           y="0"
           width="283.45999"
           height="283.45999"
           id="rect20595" />
      </g>
    </clipPath>
    <clipPath
       clipPathUnits="userSpaceOnUse"
       id="clipPath20599">
      <g
         id="g20603">
        <rect
           x="0"
           y="0"
           width="283.45999"
           height="283.45999"
           id="rect20601" />
      </g>
    </clipPath>
    <clipPath
       clipPathUnits="userSpaceOnUse"
       id="clipPath20605">
      <g
         id="g20609">
        <rect
           x="0"
           y="0"
           width="283.45999"
           height="283.45999"
           id="rect20607" />
      </g>
    </clipPath>
    <clipPath
       clipPathUnits="userSpaceOnUse"
       id="clipPath20611">
      <g
         id="g20615">
        <rect
           x="0"
           y="0"
           width="283.45999"
           height="283.45999"
           id="rect20613" />
      </g>
    </clipPath>
    <clipPath
       clipPathUnits="userSpaceOnUse"
       id="clipPath20617">
      <g
         id="g20621">
        <rect
           x="0"
           y="0"
           width="283.45999"
           height="283.45999"
           id="rect20619" />
      </g>
    </clipPath>
    <clipPath
       clipPathUnits="userSpaceOnUse"
       id="clipPath20623">
      <g
         id="g20627">
        <rect
           x="0"
           y="0"
           width="283.45999"
           height="283.45999"
           id="rect20625" />
      </g>
    </clipPath>
    <clipPath
       clipPathUnits="userSpaceOnUse"
       id="clipPath20629">
      <g
         id="g20633">
        <rect
           x="0"
           y="0"
           width="283.45999"
           height="283.45999"
           id="rect20631" />
      </g>
    </clipPath>
    <clipPath
       clipPathUnits="userSpaceOnUse"
       id="clipPath20635">
      <g
         id="g20639">
        <rect
           x="0"
           y="0"
           width="283.45999"
           height="283.45999"
           id="rect20637" />
      </g>
    </clipPath>
    <clipPath
       clipPathUnits="userSpaceOnUse"
       id="clipPath20641">
      <g
         id="g20645">
        <rect
           x="0"
           y="0"
           width="283.45999"
           height="283.45999"
           id="rect20643" />
      </g>
    </clipPath>
    <clipPath
       clipPathUnits="userSpaceOnUse"
       id="clipPath20647">
      <g
         id="g20651">
        <rect
           x="0"
           y="0"
           width="283.45999"
           height="283.45999"
           id="rect20649" />
      </g>
    </clipPath>
    <clipPath
       clipPathUnits="userSpaceOnUse"
       id="clipPath20653">
      <g
         id="g20657">
        <rect
           x="0"
           y="0"
           width="283.45999"
           height="283.45999"
           id="rect20655" />
      </g>
    </clipPath>
    <rect
       x="53.605862"
       y="270.37131"
       width="81.709908"
       height="18.996252"
       id="rect18632-8" />
  </defs>
  <rect
     width="100%"
     height="100%"
     style="fill:#ffffff;stroke:none"
     id="rect18395"
     x="0"
     y="0" />
  <defs
     id="defs18400">
    <clipPath
       id="cpMC4wMHwyODMuNDZ8MC4wMHwyODMuNDY=">
      <rect
         x="0"
         y="0"
         width="283.45999"
         height="283.45999"
         id="rect18397" />
    </clipPath>
  </defs>
  <g
     clip-path="url(#cpMC4wMHwyODMuNDZ8MC4wMHwyODMuNDY=)"
     id="g18404">
    <rect
       x="0"
       y="0"
       width="283.45999"
       height="283.45999"
       style="fill:#ffffff;stroke:#ffffff;stroke-width:1.07"
       id="rect18402" />
  </g>
  <defs
     id="defs18409">
    <clipPath
       id="cpMjguNDR8Mjc3Ljk5fDE3LjQ0fDIyMS42OQ==">
      <rect
         x="28.440001"
         y="17.440001"
         width="249.53999"
         height="204.25"
         id="rect18406" />
    </clipPath>
  </defs>
  <g
     clip-path="url(#cpMjguNDR8Mjc3Ljk5fDE3LjQ0fDIyMS42OQ==)"
     id="g18429">
    <rect
       x="28.440001"
       y="17.440001"
       width="249.53999"
       height="204.25"
       style="fill:#ffffff;stroke:none;stroke-width:1.07"
       id="rect18411" />
    <polyline
       points="39.79,47.92 40.23,48.06 40.67,48.21 41.11,48.35 41.54,48.50 41.98,48.65 42.42,48.80 42.86,48.95 43.30,49.10 43.74,49.25 44.18,49.41 44.62,49.56 45.06,49.71 45.50,49.87 45.94,50.03 46.38,50.18 46.82,50.34 47.26,50.50 47.70,50.66 48.14,50.82 48.58,50.98 49.02,51.14 49.46,51.31 49.90,51.47 50.34,51.64 50.78,51.80 51.22,51.97 51.66,52.14 52.10,52.30 52.54,52.47 52.98,52.64 53.42,52.82 53.85,52.99 54.29,53.16 54.73,53.33 55.17,53.51 55.61,53.69 56.05,53.86 56.49,54.04 56.93,54.22 57.37,54.40 57.81,54.58 58.25,54.76 58.69,54.94 59.13,55.13 59.57,55.31 60.01,55.50 60.45,55.68 60.89,55.87 61.33,56.06 61.77,56.25 62.21,56.44 62.65,56.63 63.09,56.82 63.53,57.01 63.97,57.21 64.41,57.40 64.85,57.60 65.29,57.80 65.73,57.99 66.16,58.19 66.60,58.39 67.04,58.59 67.48,58.79 67.92,59.00 68.36,59.20 68.80,59.41 69.24,59.61 69.68,59.82 70.12,60.03 70.56,60.23 71.00,60.44 71.44,60.65 71.88,60.87 72.32,61.08 72.76,61.29 73.20,61.51 73.64,61.72 74.08,61.94 74.52,62.16 74.96,62.38 75.40,62.60 75.84,62.82 76.28,63.04 76.72,63.26 77.16,63.48 77.60,63.71 78.04,63.93 78.47,64.16 78.91,64.39 79.35,64.62 79.79,64.85 80.23,65.08 80.67,65.31 81.11,65.54 81.55,65.78 81.99,66.01 82.43,66.25 82.87,66.48 83.31,66.72 83.75,66.96 84.19,67.20 84.63,67.44 85.07,67.68 85.51,67.92 85.95,68.17 86.39,68.41 86.83,68.66 87.27,68.91 87.71,69.15 88.15,69.40 88.59,69.65 89.03,69.90 89.47,70.15 89.91,70.41 90.35,70.66 90.78,70.91 91.22,71.17 91.66,71.43 92.10,71.68 92.54,71.94 92.98,72.20 93.42,72.46 93.86,72.72 94.30,72.99 94.74,73.25 95.18,73.52 95.62,73.78 96.06,74.05 96.50,74.31 96.94,74.58 97.38,74.85 97.82,75.12 98.26,75.39 98.70,75.67 99.14,75.94 99.58,76.21 100.02,76.49 100.46,76.76 100.90,77.04 101.34,77.32 101.78,77.60 102.22,77.88 102.66,78.16 103.09,78.44 103.53,78.72 103.97,79.01 104.41,79.29 104.85,79.58 105.29,79.86 105.73,80.15 106.17,80.44 106.61,80.73 107.05,81.02 107.49,81.31 107.93,81.60 108.37,81.89 108.81,82.18 109.25,82.48 109.69,82.77 110.13,83.07 110.57,83.37 111.01,83.66 111.45,83.96 111.89,84.26 112.33,84.56 112.77,84.86 113.21,85.16 113.65,85.47 114.09,85.77 114.53,86.07 114.97,86.38 115.40,86.68 115.84,86.99 116.28,87.30 116.72,87.61 117.16,87.92 117.60,88.23 118.04,88.54 118.48,88.85 118.92,89.16 119.36,89.47 119.80,89.79 120.24,90.10 120.68,90.42 121.12,90.73 121.56,91.05 122.00,91.36 122.44,91.68 122.88,92.00 123.32,92.32 123.76,92.64 124.20,92.96 124.64,93.28 125.08,93.60 125.52,93.93 125.96,94.25 126.40,94.57 126.84,94.90 127.28,95.22 127.71,95.55 128.15,95.88 128.59,96.20 129.03,96.53 129.47,96.86 129.91,97.19 130.35,97.52 130.79,97.85 131.23,98.18 131.67,98.51 132.11,98.84 132.55,99.17 132.99,99.51 133.43,99.84 133.87,100.17 134.31,100.51 134.75,100.84 135.19,101.18 135.63,101.51 136.07,101.85 136.51,102.19 136.95,102.52 137.39,102.86 137.83,103.20 138.27,103.54 138.71,103.88 139.15,104.22 139.59,104.55 140.02,104.90 140.46,105.24 140.90,105.58 141.34,105.92 141.78,106.26 142.22,106.60 142.66,106.94 143.10,107.29 143.54,107.63 143.98,107.97 144.42,108.32 144.86,108.66 145.30,109.00 145.74,109.35 146.18,109.69 146.62,110.04 147.06,110.38 147.50,110.73 147.94,111.07 148.38,111.42 148.82,111.77 149.26,112.11 149.70,112.46 150.14,112.80 150.58,113.15 151.02,113.50 151.46,113.85 151.90,114.19 152.34,114.54 152.77,114.89 153.21,115.24 153.65,115.58 154.09,115.93 154.53,116.28 154.97,116.63 155.41,116.97 155.85,117.32 156.29,117.67 156.73,118.02 157.17,118.37 157.61,118.72 158.05,119.06 158.49,119.41 158.93,119.76 159.37,120.11 159.81,120.46 160.25,120.80 160.69,121.15 161.13,121.50 161.57,121.85 162.01,122.20 162.45,122.54 162.89,122.89 163.33,123.24 163.77,123.59 164.21,123.93 164.65,124.28 165.08,124.63 165.52,124.97 165.96,125.32 166.40,125.67 166.84,126.01 167.28,126.36 167.72,126.71 168.16,127.05 168.60,127.40 169.04,127.74 169.48,128.09 169.92,128.43 170.36,128.78 170.80,129.12 171.24,129.46 171.68,129.81 172.12,130.15 172.56,130.49 173.00,130.84 173.44,131.18 173.88,131.52 174.32,131.86 174.76,132.20 175.20,132.54 175.64,132.89 176.08,133.23 176.52,133.56 176.96,133.90 177.39,134.24 177.83,134.58 178.27,134.92 178.71,135.26 179.15,135.59 179.59,135.93 180.03,136.27 180.47,136.60 180.91,136.94 181.35,137.27 181.79,137.61 182.23,137.94 182.67,138.28 183.11,138.61 183.55,138.94 183.99,139.27 184.43,139.60 184.87,139.93 185.31,140.26 185.75,140.59 186.19,140.92 186.63,141.25 187.07,141.58 187.51,141.91 187.95,142.23 188.39,142.56 188.83,142.88 189.27,143.21 189.70,143.53 190.14,143.86 190.58,144.18 191.02,144.50 191.46,144.82 191.90,145.14 192.34,145.46 192.78,145.78 193.22,146.10 193.66,146.42 194.10,146.74 194.54,147.05 194.98,147.37 195.42,147.68 195.86,148.00 196.30,148.31 196.74,148.63 197.18,148.94 197.62,149.25 198.06,149.56 198.50,149.87 198.94,150.18 199.38,150.49 199.82,150.80 200.26,151.10 200.70,151.41 201.14,151.71 201.58,152.02 202.01,152.32 202.45,152.62 202.89,152.93 203.33,153.23 203.77,153.53 204.21,153.83 204.65,154.13 205.09,154.42 205.53,154.72 205.97,155.02 206.41,155.31 206.85,155.61 207.29,155.90 207.73,156.19 208.17,156.48 208.61,156.77 209.05,157.06 209.49,157.35 209.93,157.64 210.37,157.93 210.81,158.21 211.25,158.50 211.69,158.78 212.13,159.07 212.57,159.35 213.01,159.63 213.45,159.91 213.89,160.19 214.32,160.47 214.76,160.75 215.20,161.03 215.64,161.30 216.08,161.58 216.52,161.85 216.96,162.13 217.40,162.40 217.84,162.67 218.28,162.94 218.72,163.21 219.16,163.48 219.60,163.75 220.04,164.01 220.48,164.28 220.92,164.54 221.36,164.81 221.80,165.07 222.24,165.33 222.68,165.59 223.12,165.85 223.56,166.11 224.00,166.37 224.44,166.63 224.88,166.88 225.32,167.14 225.76,167.39 226.20,167.64 226.63,167.90 227.07,168.15 227.51,168.40 227.95,168.64 228.39,168.89 228.83,169.14 229.27,169.39 229.71,169.63 230.15,169.87 230.59,170.12 231.03,170.36 231.47,170.60 231.91,170.84 232.35,171.08 232.79,171.32 233.23,171.55 233.67,171.79 234.11,172.02 234.55,172.26 234.99,172.49 235.43,172.72 235.87,172.95 236.31,173.18 236.75,173.41 237.19,173.64 237.63,173.87 238.07,174.09 238.51,174.32 238.94,174.54 239.38,174.76 239.82,174.99 240.26,175.21 240.70,175.43 241.14,175.65 241.58,175.86 242.02,176.08 242.46,176.30 242.90,176.51 243.34,176.73 243.78,176.94 244.22,177.15 244.66,177.36 245.10,177.57 245.54,177.78 245.98,177.99 246.42,178.19 246.86,178.40 247.30,178.61 247.74,178.81 248.18,179.01 248.62,179.21 249.06,179.41 249.50,179.61 249.94,179.81 250.38,180.01 250.82,180.21 251.25,180.41 251.69,180.60 252.13,180.79 252.57,180.99 253.01,181.18 253.45,181.37 253.89,181.56 254.33,181.75 254.77,181.94 255.21,182.13 255.65,182.31 256.09,182.50 256.53,182.68 256.97,182.87 257.41,183.05 257.85,183.23 258.29,183.41 258.73,183.59 259.17,183.77 259.61,183.95 260.05,184.13 260.49,184.30 260.93,184.48 261.37,184.65 261.81,184.82 262.25,185.00 262.69,185.17 263.13,185.34 263.56,185.51 264.00,185.68 264.44,185.85 264.88,186.01 265.32,186.18 265.76,186.34 266.20,186.51 266.64,186.67 "
       style="stroke:#dd1e88;stroke-width:2.56;stroke-linecap:butt"
       id="polyline18413" />
    <polyline
       points="39.79,69.78 40.23,69.92 40.67,70.07 41.11,70.21 41.54,70.36 41.98,70.51 42.42,70.65 42.86,70.80 43.30,70.95 43.74,71.10 44.18,71.24 44.62,71.39 45.06,71.54 45.50,71.69 45.94,71.84 46.38,71.99 46.82,72.14 47.26,72.29 47.70,72.44 48.14,72.59 48.58,72.74 49.02,72.90 49.46,73.05 49.90,73.20 50.34,73.35 50.78,73.51 51.22,73.66 51.66,73.81 52.10,73.97 52.54,74.12 52.98,74.28 53.42,74.43 53.85,74.59 54.29,74.74 54.73,74.90 55.17,75.05 55.61,75.21 56.05,75.37 56.49,75.52 56.93,75.68 57.37,75.84 57.81,76.00 58.25,76.16 58.69,76.32 59.13,76.48 59.57,76.63 60.01,76.79 60.45,76.95 60.89,77.12 61.33,77.28 61.77,77.44 62.21,77.60 62.65,77.76 63.09,77.92 63.53,78.08 63.97,78.25 64.41,78.41 64.85,78.57 65.29,78.74 65.73,78.90 66.16,79.06 66.60,79.23 67.04,79.39 67.48,79.56 67.92,79.72 68.36,79.89 68.80,80.06 69.24,80.22 69.68,80.39 70.12,80.56 70.56,80.72 71.00,80.89 71.44,81.06 71.88,81.23 72.32,81.39 72.76,81.56 73.20,81.73 73.64,81.90 74.08,82.07 74.52,82.24 74.96,82.41 75.40,82.58 75.84,82.75 76.28,82.92 76.72,83.09 77.16,83.27 77.60,83.44 78.04,83.61 78.47,83.78 78.91,83.96 79.35,84.13 79.79,84.30 80.23,84.47 80.67,84.65 81.11,84.82 81.55,85.00 81.99,85.17 82.43,85.35 82.87,85.52 83.31,85.70 83.75,85.87 84.19,86.05 84.63,86.23 85.07,86.40 85.51,86.58 85.95,86.76 86.39,86.93 86.83,87.11 87.27,87.29 87.71,87.47 88.15,87.65 88.59,87.82 89.03,88.00 89.47,88.18 89.91,88.36 90.35,88.54 90.78,88.72 91.22,88.90 91.66,89.08 92.10,89.26 92.54,89.44 92.98,89.63 93.42,89.81 93.86,89.99 94.30,90.17 94.74,90.35 95.18,90.54 95.62,90.72 96.06,90.90 96.50,91.08 96.94,91.27 97.38,91.45 97.82,91.63 98.26,91.82 98.70,92.00 99.14,92.19 99.58,92.37 100.02,92.56 100.46,92.74 100.90,92.93 101.34,93.11 101.78,93.30 102.22,93.49 102.66,93.67 103.09,93.86 103.53,94.05 103.97,94.23 104.41,94.42 104.85,94.61 105.29,94.80 105.73,94.98 106.17,95.17 106.61,95.36 107.05,95.55 107.49,95.74 107.93,95.93 108.37,96.12 108.81,96.31 109.25,96.49 109.69,96.68 110.13,96.87 110.57,97.06 111.01,97.25 111.45,97.45 111.89,97.64 112.33,97.83 112.77,98.02 113.21,98.21 113.65,98.40 114.09,98.59 114.53,98.78 114.97,98.98 115.40,99.17 115.84,99.36 116.28,99.55 116.72,99.75 117.16,99.94 117.60,100.13 118.04,100.33 118.48,100.52 118.92,100.71 119.36,100.91 119.80,101.10 120.24,101.29 120.68,101.49 121.12,101.68 121.56,101.88 122.00,102.07 122.44,102.27 122.88,102.46 123.32,102.66 123.76,102.85 124.20,103.05 124.64,103.24 125.08,103.44 125.52,103.63 125.96,103.83 126.40,104.03 126.84,104.22 127.28,104.42 127.71,104.62 128.15,104.81 128.59,105.01 129.03,105.21 129.47,105.40 129.91,105.60 130.35,105.80 130.79,106.00 131.23,106.19 131.67,106.39 132.11,106.59 132.55,106.79 132.99,106.98 133.43,107.18 133.87,107.38 134.31,107.58 134.75,107.78 135.19,107.98 135.63,108.18 136.07,108.37 136.51,108.57 136.95,108.77 137.39,108.97 137.83,109.17 138.27,109.37 138.71,109.57 139.15,109.77 139.59,109.97 140.02,110.17 140.46,110.37 140.90,110.57 141.34,110.77 141.78,110.97 142.22,111.17 142.66,111.37 143.10,111.57 143.54,111.77 143.98,111.97 144.42,112.17 144.86,112.37 145.30,112.57 145.74,112.77 146.18,112.97 146.62,113.17 147.06,113.37 147.50,113.57 147.94,113.77 148.38,113.97 148.82,114.17 149.26,114.37 149.70,114.57 150.14,114.78 150.58,114.98 151.02,115.18 151.46,115.38 151.90,115.58 152.34,115.78 152.77,115.98 153.21,116.18 153.65,116.38 154.09,116.59 154.53,116.79 154.97,116.99 155.41,117.19 155.85,117.39 156.29,117.59 156.73,117.79 157.17,118.00 157.61,118.20 158.05,118.40 158.49,118.60 158.93,118.80 159.37,119.00 159.81,119.20 160.25,119.41 160.69,119.61 161.13,119.81 161.57,120.01 162.01,120.21 162.45,120.41 162.89,120.61 163.33,120.81 163.77,121.02 164.21,121.22 164.65,121.42 165.08,121.62 165.52,121.82 165.96,122.02 166.40,122.22 166.84,122.42 167.28,122.63 167.72,122.83 168.16,123.03 168.60,123.23 169.04,123.43 169.48,123.63 169.92,123.83 170.36,124.03 170.80,124.23 171.24,124.43 171.68,124.63 172.12,124.84 172.56,125.04 173.00,125.24 173.44,125.44 173.88,125.64 174.32,125.84 174.76,126.04 175.20,126.24 175.64,126.44 176.08,126.64 176.52,126.84 176.96,127.04 177.39,127.24 177.83,127.44 178.27,127.64 178.71,127.84 179.15,128.04 179.59,128.24 180.03,128.43 180.47,128.63 180.91,128.83 181.35,129.03 181.79,129.23 182.23,129.43 182.67,129.63 183.11,129.83 183.55,130.03 183.99,130.22 184.43,130.42 184.87,130.62 185.31,130.82 185.75,131.02 186.19,131.22 186.63,131.41 187.07,131.61 187.51,131.81 187.95,132.01 188.39,132.20 188.83,132.40 189.27,132.60 189.70,132.79 190.14,132.99 190.58,133.19 191.02,133.38 191.46,133.58 191.90,133.78 192.34,133.97 192.78,134.17 193.22,134.37 193.66,134.56 194.10,134.76 194.54,134.95 194.98,135.15 195.42,135.34 195.86,135.54 196.30,135.73 196.74,135.93 197.18,136.12 197.62,136.32 198.06,136.51 198.50,136.70 198.94,136.90 199.38,137.09 199.82,137.29 200.26,137.48 200.70,137.67 201.14,137.87 201.58,138.06 202.01,138.25 202.45,138.44 202.89,138.64 203.33,138.83 203.77,139.02 204.21,139.21 204.65,139.40 205.09,139.60 205.53,139.79 205.97,139.98 206.41,140.17 206.85,140.36 207.29,140.55 207.73,140.74 208.17,140.93 208.61,141.12 209.05,141.31 209.49,141.50 209.93,141.69 210.37,141.88 210.81,142.07 211.25,142.26 211.69,142.45 212.13,142.63 212.57,142.82 213.01,143.01 213.45,143.20 213.89,143.39 214.32,143.57 214.76,143.76 215.20,143.95 215.64,144.13 216.08,144.32 216.52,144.51 216.96,144.69 217.40,144.88 217.84,145.06 218.28,145.25 218.72,145.43 219.16,145.62 219.60,145.80 220.04,145.99 220.48,146.17 220.92,146.36 221.36,146.54 221.80,146.72 222.24,146.91 222.68,147.09 223.12,147.27 223.56,147.45 224.00,147.64 224.44,147.82 224.88,148.00 225.32,148.18 225.76,148.36 226.20,148.54 226.63,148.73 227.07,148.91 227.51,149.09 227.95,149.27 228.39,149.45 228.83,149.63 229.27,149.80 229.71,149.98 230.15,150.16 230.59,150.34 231.03,150.52 231.47,150.70 231.91,150.87 232.35,151.05 232.79,151.23 233.23,151.41 233.67,151.58 234.11,151.76 234.55,151.94 234.99,152.11 235.43,152.29 235.87,152.46 236.31,152.64 236.75,152.81 237.19,152.99 237.63,153.16 238.07,153.33 238.51,153.51 238.94,153.68 239.38,153.85 239.82,154.03 240.26,154.20 240.70,154.37 241.14,154.54 241.58,154.72 242.02,154.89 242.46,155.06 242.90,155.23 243.34,155.40 243.78,155.57 244.22,155.74 244.66,155.91 245.10,156.08 245.54,156.25 245.98,156.42 246.42,156.58 246.86,156.75 247.30,156.92 247.74,157.09 248.18,157.25 248.62,157.42 249.06,157.59 249.50,157.75 249.94,157.92 250.38,158.09 250.82,158.25 251.25,158.42 251.69,158.58 252.13,158.75 252.57,158.91 253.01,159.07 253.45,159.24 253.89,159.40 254.33,159.56 254.77,159.73 255.21,159.89 255.65,160.05 256.09,160.21 256.53,160.37 256.97,160.54 257.41,160.70 257.85,160.86 258.29,161.02 258.73,161.18 259.17,161.34 259.61,161.50 260.05,161.66 260.49,161.81 260.93,161.97 261.37,162.13 261.81,162.29 262.25,162.45 262.69,162.60 263.13,162.76 263.56,162.92 264.00,163.07 264.44,163.23 264.88,163.38 265.32,163.54 265.76,163.69 266.20,163.85 266.64,164.00 "
       style="stroke:#1c8eb3;stroke-width:2.56;stroke-linecap:butt"
       id="polyline18415" />
    <polygon
       points="40.67,26.84 41.11,26.9 41.54,26.97 41.98,27.03 42.42,27.09 42.86,27.15 43.3,27.22 43.74,27.28 44.18,27.35 44.62,27.42 45.06,27.48 45.5,27.55 45.94,27.62 46.38,27.69 46.82,27.76 47.26,27.83 47.7,27.91 48.14,27.98 48.58,28.05 49.02,28.13 49.46,28.2 49.9,28.28 50.34,28.36 50.78,28.43 51.22,28.51 51.66,28.59 52.1,28.67 52.54,28.75 52.98,28.84 53.42,28.92 53.85,29 54.29,29.09 54.73,29.17 55.17,29.26 55.61,29.35 56.05,29.43 56.49,29.52 56.93,29.61 57.37,29.7 57.81,29.8 58.25,29.89 58.69,29.98 59.13,30.08 59.57,30.17 60.01,30.27 60.45,30.37 60.89,30.46 61.33,30.56 61.77,30.66 62.21,30.76 62.65,30.87 63.09,30.97 63.53,31.07 63.97,31.18 64.41,31.28 64.85,31.39 65.29,31.5 65.73,31.61 66.16,31.72 66.6,31.83 67.04,31.94 67.48,32.05 67.92,32.17 68.36,32.28 68.8,32.4 69.24,32.51 69.68,32.63 70.12,32.75 70.56,32.87 71,32.99 71.44,33.11 71.88,33.24 72.32,33.36 72.76,33.49 73.2,33.61 73.64,33.74 74.08,33.87 74.52,34 74.96,34.13 75.4,34.26 75.84,34.39 76.28,34.53 76.72,34.66 77.16,34.8 77.6,34.93 78.04,35.07 78.47,35.21 78.91,35.35 79.35,35.49 79.79,35.64 80.23,35.78 80.67,35.92 81.11,36.07 81.55,36.22 81.99,36.37 82.43,36.52 82.87,36.67 83.31,36.82 83.75,36.97 84.19,37.12 84.63,37.28 85.07,37.44 85.51,37.59 85.95,37.75 86.39,37.91 86.83,38.07 87.27,38.24 87.71,38.4 88.15,38.56 88.59,38.73 89.03,38.9 89.47,39.06 89.91,39.23 90.35,39.4 90.78,39.58 91.22,39.75 91.66,39.92 92.1,40.1 92.54,40.27 92.98,40.45 93.42,40.63 93.86,40.81 94.3,40.99 94.74,41.17 95.18,41.36 95.62,41.54 96.06,41.73 96.5,41.91 96.94,42.1 97.38,42.29 97.82,42.48 98.26,42.68 98.7,42.87 99.14,43.06 99.58,43.26 100.02,43.46 100.46,43.65 100.9,43.85 101.34,44.05 101.78,44.26 102.22,44.46 102.66,44.66 103.09,44.87 103.53,45.07 103.97,45.28 104.41,45.49 104.85,45.7 105.29,45.91 105.73,46.13 106.17,46.34 106.61,46.55 107.05,46.77 107.49,46.99 107.93,47.21 108.37,47.43 108.81,47.65 109.25,47.87 109.69,48.09 110.13,48.32 110.57,48.54 111.01,48.77 111.45,49 111.89,49.23 112.33,49.46 112.77,49.69 113.21,49.93 113.65,50.16 114.09,50.4 114.53,50.63 114.97,50.87 115.4,51.11 115.84,51.35 116.28,51.59 116.72,51.83 117.16,52.08 117.6,52.32 118.04,52.57 118.48,52.82 118.92,53.07 119.36,53.31 119.8,53.57 120.24,53.82 120.68,54.07 121.12,54.33 121.56,54.58 122,54.84 122.44,55.09 122.88,55.35 123.32,55.61 123.76,55.87 124.2,56.14 124.64,56.4 125.08,56.67 125.52,56.93 125.96,57.2 126.4,57.47 126.84,57.73 127.28,58 127.71,58.28 128.15,58.55 128.59,58.82 129.03,59.1 129.47,59.37 129.91,59.65 130.35,59.93 130.79,60.2 131.23,60.48 131.67,60.76 132.11,61.05 132.55,61.33 132.99,61.61 133.43,61.9 133.87,62.18 134.31,62.47 134.75,62.76 135.19,63.05 135.63,63.34 136.07,63.63 136.51,63.92 136.95,64.21 137.39,64.51 137.83,64.8 138.27,65.1 138.71,65.4 139.15,65.69 139.59,65.99 140.02,66.29 140.46,66.59 140.9,66.9 141.34,67.2 141.78,67.5 142.22,67.81 142.66,68.11 143.1,68.42 143.54,68.72 143.98,69.03 144.42,69.34 144.86,69.65 145.3,69.96 145.74,70.27 146.18,70.59 146.62,70.9 147.06,71.21 147.5,71.53 147.94,71.84 148.38,72.16 148.82,72.48 149.26,72.8 149.7,73.12 150.14,73.44 150.58,73.76 151.02,74.08 151.46,74.4 151.9,74.72 152.34,75.05 152.77,75.37 153.21,75.7 153.65,76.02 154.09,76.35 154.53,76.68 154.97,77 155.41,77.33 155.85,77.66 156.29,77.99 156.73,78.32 157.17,78.65 157.61,78.99 158.05,79.32 158.49,79.65 158.93,79.99 159.37,80.32 159.81,80.66 160.25,80.99 160.69,81.33 161.13,81.67 161.57,82 162.01,82.34 162.45,82.68 162.89,83.02 163.33,83.36 163.77,83.7 164.21,84.04 164.65,84.39 165.08,84.73 165.52,85.07 165.96,85.41 166.4,85.76 166.84,86.1 167.28,86.45 167.72,86.79 168.16,87.14 168.6,87.48 169.04,87.83 169.48,88.18 169.92,88.52 170.36,88.87 170.8,89.22 171.24,89.57 171.68,89.92 172.12,90.27 172.56,90.62 173,90.97 173.44,91.32 173.88,91.67 174.32,92.02 174.76,92.37 175.2,92.72 175.64,93.08 176.08,93.43 176.52,93.78 176.96,94.14 177.39,94.49 177.83,94.84 178.27,95.2 178.71,95.55 179.15,95.91 179.59,96.26 180.03,96.62 180.47,96.97 180.91,97.33 181.35,97.68 181.79,98.04 182.23,98.39 182.67,98.75 183.11,99.11 183.55,99.46 183.99,99.82 184.43,100.18 184.87,100.53 185.31,100.89 185.75,101.25 186.19,101.61 186.63,101.96 187.07,102.32 187.51,102.68 187.95,103.04 188.39,103.39 188.83,103.75 189.27,104.11 189.7,104.47 190.14,104.83 190.58,105.18 191.02,105.54 191.46,105.9 191.9,106.26 192.34,106.62 192.78,106.97 193.22,107.33 193.66,107.69 194.1,108.05 194.54,108.4 194.98,108.76 195.42,109.12 195.86,109.48 196.3,109.83 196.74,110.19 197.18,110.55 197.62,110.91 198.06,111.26 198.5,111.62 198.94,111.98 199.38,112.33 199.82,112.69 200.26,113.05 200.7,113.4 201.14,113.76 201.58,114.11 202.01,114.47 202.45,114.83 202.89,115.18 203.33,115.54 203.77,115.89 204.21,116.24 204.65,116.6 205.09,116.95 205.53,117.31 205.97,117.66 206.41,118.01 206.85,118.37 207.29,118.72 207.73,119.07 208.17,119.42 208.61,119.77 209.05,120.12 209.49,120.48 209.93,120.83 210.37,121.18 210.81,121.53 211.25,121.88 211.69,122.23 212.13,122.57 212.57,122.92 213.01,123.27 213.45,123.62 213.89,123.97 214.32,124.31 214.76,124.66 215.2,125 215.64,125.35 216.08,125.69 216.52,126.04 216.96,126.38 217.4,126.73 217.84,127.07 218.28,127.41 218.72,127.76 219.16,128.1 219.6,128.44 220.04,128.78 220.48,129.12 220.92,129.46 221.36,129.8 221.8,130.14 222.24,130.47 222.68,130.81 223.12,131.15 223.56,131.49 224,131.82 224.44,132.16 224.88,132.49 225.32,132.83 225.76,133.16 226.2,133.49 226.63,133.82 227.07,134.16 227.51,134.49 227.95,134.82 228.39,135.15 228.83,135.48 229.27,135.81 229.71,136.13 230.15,136.46 230.59,136.79 231.03,137.11 231.47,137.44 231.91,137.76 232.35,138.09 232.79,138.41 233.23,138.73 233.67,139.05 234.11,139.38 234.55,139.7 234.99,140.02 235.43,140.34 235.87,140.65 236.31,140.97 236.75,141.29 237.19,141.6 237.63,141.92 238.07,142.24 238.51,142.55 238.94,142.86 239.38,143.17 239.82,143.49 240.26,143.8 240.7,144.11 241.14,144.42 241.58,144.73 242.02,145.03 242.46,145.34 242.9,145.65 243.34,145.95 243.78,146.26 244.22,146.56 244.66,146.86 245.1,147.17 245.54,147.47 245.98,147.77 246.42,148.07 246.86,148.37 247.3,148.67 247.74,148.96 248.18,149.26 248.62,149.56 249.06,149.85 249.5,150.15 249.94,150.44 250.38,150.73 250.82,151.02 251.25,151.31 251.69,151.6 252.13,151.89 252.57,152.18 253.01,152.47 253.45,152.75 253.89,153.04 254.33,153.32 254.77,153.61 255.21,153.89 255.65,154.17 256.09,154.45 256.53,154.74 256.97,155.01 257.41,155.29 257.85,155.57 258.29,155.85 258.73,156.12 259.17,156.4 259.61,156.67 260.05,156.95 260.49,157.22 260.93,157.49 261.37,157.76 261.81,158.03 262.25,158.3 262.69,158.57 263.13,158.83 263.56,159.1 264,159.36 264.44,159.63 264.88,159.89 265.32,160.15 265.76,160.42 266.2,160.68 266.64,160.94 266.64,212.41 266.2,212.34 265.76,212.27 265.32,212.2 264.88,212.13 264.44,212.06 264,211.99 263.56,211.92 263.13,211.85 262.69,211.77 262.25,211.7 261.81,211.62 261.37,211.54 260.93,211.46 260.49,211.39 260.05,211.31 259.61,211.22 259.17,211.14 258.73,211.06 258.29,210.98 257.85,210.89 257.41,210.81 256.97,210.72 256.53,210.63 256.09,210.54 255.65,210.45 255.21,210.36 254.77,210.27 254.33,210.18 253.89,210.08 253.45,209.99 253.01,209.89 252.57,209.79 252.13,209.7 251.69,209.6 251.25,209.5 250.82,209.39 250.38,209.29 249.94,209.19 249.5,209.08 249.06,208.98 248.62,208.87 248.18,208.76 247.74,208.65 247.3,208.54 246.86,208.43 246.42,208.32 245.98,208.21 245.54,208.09 245.1,207.97 244.66,207.86 244.22,207.74 243.78,207.62 243.34,207.5 242.9,207.38 242.46,207.25 242.02,207.13 241.58,207 241.14,206.87 240.7,206.75 240.26,206.62 239.82,206.49 239.38,206.35 238.94,206.22 238.51,206.09 238.07,205.95 237.63,205.81 237.19,205.68 236.75,205.54 236.31,205.4 235.87,205.25 235.43,205.11 234.99,204.97 234.55,204.82 234.11,204.67 233.67,204.52 233.23,204.37 232.79,204.22 232.35,204.07 231.91,203.92 231.47,203.76 231.03,203.61 230.59,203.45 230.15,203.29 229.71,203.13 229.27,202.97 228.83,202.8 228.39,202.64 227.95,202.47 227.51,202.31 227.07,202.14 226.63,201.97 226.2,201.79 225.76,201.62 225.32,201.45 224.88,201.27 224.44,201.1 224,200.92 223.56,200.74 223.12,200.56 222.68,200.37 222.24,200.19 221.8,200 221.36,199.82 220.92,199.63 220.48,199.44 220.04,199.25 219.6,199.06 219.16,198.86 218.72,198.67 218.28,198.47 217.84,198.27 217.4,198.07 216.96,197.87 216.52,197.67 216.08,197.46 215.64,197.26 215.2,197.05 214.76,196.84 214.32,196.63 213.89,196.42 213.45,196.21 213.01,196 212.57,195.78 212.13,195.56 211.69,195.34 211.25,195.12 210.81,194.9 210.37,194.68 209.93,194.46 209.49,194.23 209.05,194 208.61,193.77 208.17,193.54 207.73,193.31 207.29,193.08 206.85,192.85 206.41,192.61 205.97,192.37 205.53,192.13 205.09,191.89 204.65,191.65 204.21,191.41 203.77,191.16 203.33,190.92 202.89,190.67 202.45,190.42 202.01,190.17 201.58,189.92 201.14,189.67 200.7,189.41 200.26,189.16 199.82,188.9 199.38,188.64 198.94,188.38 198.5,188.12 198.06,187.86 197.62,187.59 197.18,187.33 196.74,187.06 196.3,186.79 195.86,186.52 195.42,186.25 194.98,185.98 194.54,185.7 194.1,185.43 193.66,185.15 193.22,184.87 192.78,184.59 192.34,184.31 191.9,184.03 191.46,183.75 191.02,183.46 190.58,183.17 190.14,182.89 189.7,182.6 189.27,182.31 188.83,182.02 188.39,181.72 187.95,181.43 187.51,181.13 187.07,180.84 186.63,180.54 186.19,180.24 185.75,179.94 185.31,179.64 184.87,179.33 184.43,179.03 183.99,178.72 183.55,178.42 183.11,178.11 182.67,177.8 182.23,177.49 181.79,177.18 181.35,176.87 180.91,176.55 180.47,176.24 180.03,175.92 179.59,175.6 179.15,175.28 178.71,174.96 178.27,174.64 177.83,174.32 177.39,174 176.96,173.67 176.52,173.35 176.08,173.02 175.64,172.69 175.2,172.36 174.76,172.03 174.32,171.7 173.88,171.37 173.44,171.04 173,170.7 172.56,170.37 172.12,170.03 171.68,169.7 171.24,169.36 170.8,169.02 170.36,168.68 169.92,168.34 169.48,168 169.04,167.65 168.6,167.31 168.16,166.97 167.72,166.62 167.28,166.27 166.84,165.93 166.4,165.58 165.96,165.23 165.52,164.88 165.08,164.53 164.65,164.18 164.21,163.82 163.77,163.47 163.33,163.12 162.89,162.76 162.45,162.41 162.01,162.05 161.57,161.69 161.13,161.33 160.69,160.97 160.25,160.62 159.81,160.26 159.37,159.89 158.93,159.53 158.49,159.17 158.05,158.81 157.61,158.44 157.17,158.08 156.73,157.71 156.29,157.35 155.85,156.98 155.41,156.62 154.97,156.25 154.53,155.88 154.09,155.51 153.65,155.14 153.21,154.77 152.77,154.4 152.34,154.03 151.9,153.66 151.46,153.29 151.02,152.92 150.58,152.55 150.14,152.17 149.7,151.8 149.26,151.43 148.82,151.05 148.38,150.68 147.94,150.3 147.5,149.93 147.06,149.55 146.62,149.18 146.18,148.8 145.74,148.42 145.3,148.04 144.86,147.67 144.42,147.29 143.98,146.91 143.54,146.53 143.1,146.15 142.66,145.78 142.22,145.4 141.78,145.02 141.34,144.64 140.9,144.26 140.46,143.88 140.02,143.5 139.59,143.12 139.15,142.74 138.71,142.36 138.27,141.98 137.83,141.59 137.39,141.21 136.95,140.83 136.51,140.45 136.07,140.07 135.63,139.69 135.19,139.31 134.75,138.93 134.31,138.54 133.87,138.16 133.43,137.78 132.99,137.4 132.55,137.02 132.11,136.64 131.67,136.25 131.23,135.87 130.79,135.49 130.35,135.11 129.91,134.73 129.47,134.35 129.03,133.97 128.59,133.59 128.15,133.21 127.71,132.82 127.28,132.44 126.84,132.06 126.4,131.68 125.96,131.3 125.52,130.92 125.08,130.54 124.64,130.16 124.2,129.79 123.76,129.41 123.32,129.03 122.88,128.65 122.44,128.27 122,127.89 121.56,127.51 121.12,127.14 120.68,126.76 120.24,126.38 119.8,126.01 119.36,125.63 118.92,125.25 118.48,124.88 118.04,124.5 117.6,124.13 117.16,123.75 116.72,123.38 116.28,123.01 115.84,122.63 115.4,122.26 114.97,121.89 114.53,121.51 114.09,121.14 113.65,120.77 113.21,120.4 112.77,120.03 112.33,119.66 111.89,119.29 111.45,118.92 111.01,118.55 110.57,118.19 110.13,117.82 109.69,117.45 109.25,117.08 108.81,116.72 108.37,116.35 107.93,115.99 107.49,115.62 107.05,115.26 106.61,114.9 106.17,114.53 105.73,114.17 105.29,113.81 104.85,113.45 104.41,113.09 103.97,112.73 103.53,112.37 103.09,112.01 102.66,111.65 102.22,111.3 101.78,110.94 101.34,110.59 100.9,110.23 100.46,109.88 100.02,109.52 99.58,109.17 99.14,108.82 98.7,108.46 98.26,108.11 97.82,107.76 97.38,107.41 96.94,107.06 96.5,106.72 96.06,106.37 95.62,106.02 95.18,105.67 94.74,105.33 94.3,104.98 93.86,104.64 93.42,104.3 92.98,103.95 92.54,103.61 92.1,103.27 91.66,102.93 91.22,102.59 90.78,102.25 90.35,101.92 89.91,101.58 89.47,101.24 89.03,100.91 88.59,100.57 88.15,100.24 87.71,99.91 87.27,99.57 86.83,99.24 86.39,98.91 85.95,98.58 85.51,98.25 85.07,97.93 84.63,97.6 84.19,97.27 83.75,96.95 83.31,96.62 82.87,96.3 82.43,95.98 81.99,95.65 81.55,95.33 81.11,95.01 80.67,94.69 80.23,94.38 79.79,94.06 79.35,93.74 78.91,93.43 78.47,93.11 78.04,92.8 77.6,92.48 77.16,92.17 76.72,91.86 76.28,91.55 75.84,91.24 75.4,90.93 74.96,90.62 74.52,90.32 74.08,90.01 73.64,89.71 73.2,89.4 72.76,89.1 72.32,88.8 71.88,88.5 71.44,88.2 71,87.9 70.56,87.6 70.12,87.3 69.68,87.01 69.24,86.71 68.8,86.42 68.36,86.12 67.92,85.83 67.48,85.54 67.04,85.25 66.6,84.96 66.16,84.67 65.73,84.38 65.29,84.09 64.85,83.81 64.41,83.52 63.97,83.24 63.53,82.95 63.09,82.67 62.65,82.39 62.21,82.11 61.77,81.83 61.33,81.55 60.89,81.28 60.45,81 60.01,80.72 59.57,80.45 59.13,80.18 58.69,79.9 58.25,79.63 57.81,79.36 57.37,79.09 56.93,78.82 56.49,78.56 56.05,78.29 55.61,78.02 55.17,77.76 54.73,77.5 54.29,77.23 53.85,76.97 53.42,76.71 52.98,76.45 52.54,76.19 52.1,75.93 51.66,75.68 51.22,75.42 50.78,75.17 50.34,74.91 49.9,74.66 49.46,74.41 49.02,74.16 48.58,73.91 48.14,73.66 47.7,73.41 47.26,73.16 46.82,72.92 46.38,72.67 45.94,72.43 45.5,72.18 45.06,71.94 44.62,71.7 44.18,71.46 43.74,71.22 43.3,70.98 42.86,70.75 42.42,70.51 41.98,70.27 41.54,70.04 41.11,69.81 40.67,69.57 40.23,69.34 39.79,69.11 39.79,26.72 40.23,26.78 "
       style="fill:#dd1e88;fill-opacity:0.1;stroke:none;stroke-width:0;stroke-linecap:butt"
       id="polygon18417" />
    <polyline
       points="39.79,26.72 40.23,26.78 40.67,26.84 41.11,26.90 41.54,26.97 41.98,27.03 42.42,27.09 42.86,27.15 43.30,27.22 43.74,27.28 44.18,27.35 44.62,27.42 45.06,27.48 45.50,27.55 45.94,27.62 46.38,27.69 46.82,27.76 47.26,27.83 47.70,27.91 48.14,27.98 48.58,28.05 49.02,28.13 49.46,28.20 49.90,28.28 50.34,28.36 50.78,28.43 51.22,28.51 51.66,28.59 52.10,28.67 52.54,28.75 52.98,28.84 53.42,28.92 53.85,29.00 54.29,29.09 54.73,29.17 55.17,29.26 55.61,29.35 56.05,29.43 56.49,29.52 56.93,29.61 57.37,29.70 57.81,29.80 58.25,29.89 58.69,29.98 59.13,30.08 59.57,30.17 60.01,30.27 60.45,30.37 60.89,30.46 61.33,30.56 61.77,30.66 62.21,30.76 62.65,30.87 63.09,30.97 63.53,31.07 63.97,31.18 64.41,31.28 64.85,31.39 65.29,31.50 65.73,31.61 66.16,31.72 66.60,31.83 67.04,31.94 67.48,32.05 67.92,32.17 68.36,32.28 68.80,32.40 69.24,32.51 69.68,32.63 70.12,32.75 70.56,32.87 71.00,32.99 71.44,33.11 71.88,33.24 72.32,33.36 72.76,33.49 73.20,33.61 73.64,33.74 74.08,33.87 74.52,34.00 74.96,34.13 75.40,34.26 75.84,34.39 76.28,34.53 76.72,34.66 77.16,34.80 77.60,34.93 78.04,35.07 78.47,35.21 78.91,35.35 79.35,35.49 79.79,35.64 80.23,35.78 80.67,35.92 81.11,36.07 81.55,36.22 81.99,36.37 82.43,36.52 82.87,36.67 83.31,36.82 83.75,36.97 84.19,37.12 84.63,37.28 85.07,37.44 85.51,37.59 85.95,37.75 86.39,37.91 86.83,38.07 87.27,38.24 87.71,38.40 88.15,38.56 88.59,38.73 89.03,38.90 89.47,39.06 89.91,39.23 90.35,39.40 90.78,39.58 91.22,39.75 91.66,39.92 92.10,40.10 92.54,40.27 92.98,40.45 93.42,40.63 93.86,40.81 94.30,40.99 94.74,41.17 95.18,41.36 95.62,41.54 96.06,41.73 96.50,41.91 96.94,42.10 97.38,42.29 97.82,42.48 98.26,42.68 98.70,42.87 99.14,43.06 99.58,43.26 100.02,43.46 100.46,43.65 100.90,43.85 101.34,44.05 101.78,44.26 102.22,44.46 102.66,44.66 103.09,44.87 103.53,45.07 103.97,45.28 104.41,45.49 104.85,45.70 105.29,45.91 105.73,46.13 106.17,46.34 106.61,46.55 107.05,46.77 107.49,46.99 107.93,47.21 108.37,47.43 108.81,47.65 109.25,47.87 109.69,48.09 110.13,48.32 110.57,48.54 111.01,48.77 111.45,49.00 111.89,49.23 112.33,49.46 112.77,49.69 113.21,49.93 113.65,50.16 114.09,50.40 114.53,50.63 114.97,50.87 115.40,51.11 115.84,51.35 116.28,51.59 116.72,51.83 117.16,52.08 117.60,52.32 118.04,52.57 118.48,52.82 118.92,53.07 119.36,53.31 119.80,53.57 120.24,53.82 120.68,54.07 121.12,54.33 121.56,54.58 122.00,54.84 122.44,55.09 122.88,55.35 123.32,55.61 123.76,55.87 124.20,56.14 124.64,56.40 125.08,56.67 125.52,56.93 125.96,57.20 126.40,57.47 126.84,57.73 127.28,58.00 127.71,58.28 128.15,58.55 128.59,58.82 129.03,59.10 129.47,59.37 129.91,59.65 130.35,59.93 130.79,60.20 131.23,60.48 131.67,60.76 132.11,61.05 132.55,61.33 132.99,61.61 133.43,61.90 133.87,62.18 134.31,62.47 134.75,62.76 135.19,63.05 135.63,63.34 136.07,63.63 136.51,63.92 136.95,64.21 137.39,64.51 137.83,64.80 138.27,65.10 138.71,65.40 139.15,65.69 139.59,65.99 140.02,66.29 140.46,66.59 140.90,66.90 141.34,67.20 141.78,67.50 142.22,67.81 142.66,68.11 143.10,68.42 143.54,68.72 143.98,69.03 144.42,69.34 144.86,69.65 145.30,69.96 145.74,70.27 146.18,70.59 146.62,70.90 147.06,71.21 147.50,71.53 147.94,71.84 148.38,72.16 148.82,72.48 149.26,72.80 149.70,73.12 150.14,73.44 150.58,73.76 151.02,74.08 151.46,74.40 151.90,74.72 152.34,75.05 152.77,75.37 153.21,75.70 153.65,76.02 154.09,76.35 154.53,76.68 154.97,77.00 155.41,77.33 155.85,77.66 156.29,77.99 156.73,78.32 157.17,78.65 157.61,78.99 158.05,79.32 158.49,79.65 158.93,79.99 159.37,80.32 159.81,80.66 160.25,80.99 160.69,81.33 161.13,81.67 161.57,82.00 162.01,82.34 162.45,82.68 162.89,83.02 163.33,83.36 163.77,83.70 164.21,84.04 164.65,84.39 165.08,84.73 165.52,85.07 165.96,85.41 166.40,85.76 166.84,86.10 167.28,86.45 167.72,86.79 168.16,87.14 168.60,87.48 169.04,87.83 169.48,88.18 169.92,88.52 170.36,88.87 170.80,89.22 171.24,89.57 171.68,89.92 172.12,90.27 172.56,90.62 173.00,90.97 173.44,91.32 173.88,91.67 174.32,92.02 174.76,92.37 175.20,92.72 175.64,93.08 176.08,93.43 176.52,93.78 176.96,94.14 177.39,94.49 177.83,94.84 178.27,95.20 178.71,95.55 179.15,95.91 179.59,96.26 180.03,96.62 180.47,96.97 180.91,97.33 181.35,97.68 181.79,98.04 182.23,98.39 182.67,98.75 183.11,99.11 183.55,99.46 183.99,99.82 184.43,100.18 184.87,100.53 185.31,100.89 185.75,101.25 186.19,101.61 186.63,101.96 187.07,102.32 187.51,102.68 187.95,103.04 188.39,103.39 188.83,103.75 189.27,104.11 189.70,104.47 190.14,104.83 190.58,105.18 191.02,105.54 191.46,105.90 191.90,106.26 192.34,106.62 192.78,106.97 193.22,107.33 193.66,107.69 194.10,108.05 194.54,108.40 194.98,108.76 195.42,109.12 195.86,109.48 196.30,109.83 196.74,110.19 197.18,110.55 197.62,110.91 198.06,111.26 198.50,111.62 198.94,111.98 199.38,112.33 199.82,112.69 200.26,113.05 200.70,113.40 201.14,113.76 201.58,114.11 202.01,114.47 202.45,114.83 202.89,115.18 203.33,115.54 203.77,115.89 204.21,116.24 204.65,116.60 205.09,116.95 205.53,117.31 205.97,117.66 206.41,118.01 206.85,118.37 207.29,118.72 207.73,119.07 208.17,119.42 208.61,119.77 209.05,120.12 209.49,120.48 209.93,120.83 210.37,121.18 210.81,121.53 211.25,121.88 211.69,122.23 212.13,122.57 212.57,122.92 213.01,123.27 213.45,123.62 213.89,123.97 214.32,124.31 214.76,124.66 215.20,125.00 215.64,125.35 216.08,125.69 216.52,126.04 216.96,126.38 217.40,126.73 217.84,127.07 218.28,127.41 218.72,127.76 219.16,128.10 219.60,128.44 220.04,128.78 220.48,129.12 220.92,129.46 221.36,129.80 221.80,130.14 222.24,130.47 222.68,130.81 223.12,131.15 223.56,131.49 224.00,131.82 224.44,132.16 224.88,132.49 225.32,132.83 225.76,133.16 226.20,133.49 226.63,133.82 227.07,134.16 227.51,134.49 227.95,134.82 228.39,135.15 228.83,135.48 229.27,135.81 229.71,136.13 230.15,136.46 230.59,136.79 231.03,137.11 231.47,137.44 231.91,137.76 232.35,138.09 232.79,138.41 233.23,138.73 233.67,139.05 234.11,139.38 234.55,139.70 234.99,140.02 235.43,140.34 235.87,140.65 236.31,140.97 236.75,141.29 237.19,141.60 237.63,141.92 238.07,142.24 238.51,142.55 238.94,142.86 239.38,143.17 239.82,143.49 240.26,143.80 240.70,144.11 241.14,144.42 241.58,144.73 242.02,145.03 242.46,145.34 242.90,145.65 243.34,145.95 243.78,146.26 244.22,146.56 244.66,146.86 245.10,147.17 245.54,147.47 245.98,147.77 246.42,148.07 246.86,148.37 247.30,148.67 247.74,148.96 248.18,149.26 248.62,149.56 249.06,149.85 249.50,150.15 249.94,150.44 250.38,150.73 250.82,151.02 251.25,151.31 251.69,151.60 252.13,151.89 252.57,152.18 253.01,152.47 253.45,152.75 253.89,153.04 254.33,153.32 254.77,153.61 255.21,153.89 255.65,154.17 256.09,154.45 256.53,154.74 256.97,155.01 257.41,155.29 257.85,155.57 258.29,155.85 258.73,156.12 259.17,156.40 259.61,156.67 260.05,156.95 260.49,157.22 260.93,157.49 261.37,157.76 261.81,158.03 262.25,158.30 262.69,158.57 263.13,158.83 263.56,159.10 264.00,159.36 264.44,159.63 264.88,159.89 265.32,160.15 265.76,160.42 266.20,160.68 266.64,160.94 "
       style="stroke:none;stroke-width:1.07;stroke-linecap:butt"
       id="polyline18419" />
    <polyline
       points="266.64,212.41 266.20,212.34 265.76,212.27 265.32,212.20 264.88,212.13 264.44,212.06 264.00,211.99 263.56,211.92 263.13,211.85 262.69,211.77 262.25,211.70 261.81,211.62 261.37,211.54 260.93,211.46 260.49,211.39 260.05,211.31 259.61,211.22 259.17,211.14 258.73,211.06 258.29,210.98 257.85,210.89 257.41,210.81 256.97,210.72 256.53,210.63 256.09,210.54 255.65,210.45 255.21,210.36 254.77,210.27 254.33,210.18 253.89,210.08 253.45,209.99 253.01,209.89 252.57,209.79 252.13,209.70 251.69,209.60 251.25,209.50 250.82,209.39 250.38,209.29 249.94,209.19 249.50,209.08 249.06,208.98 248.62,208.87 248.18,208.76 247.74,208.65 247.30,208.54 246.86,208.43 246.42,208.32 245.98,208.21 245.54,208.09 245.10,207.97 244.66,207.86 244.22,207.74 243.78,207.62 243.34,207.50 242.90,207.38 242.46,207.25 242.02,207.13 241.58,207.00 241.14,206.87 240.70,206.75 240.26,206.62 239.82,206.49 239.38,206.35 238.94,206.22 238.51,206.09 238.07,205.95 237.63,205.81 237.19,205.68 236.75,205.54 236.31,205.40 235.87,205.25 235.43,205.11 234.99,204.97 234.55,204.82 234.11,204.67 233.67,204.52 233.23,204.37 232.79,204.22 232.35,204.07 231.91,203.92 231.47,203.76 231.03,203.61 230.59,203.45 230.15,203.29 229.71,203.13 229.27,202.97 228.83,202.80 228.39,202.64 227.95,202.47 227.51,202.31 227.07,202.14 226.63,201.97 226.20,201.79 225.76,201.62 225.32,201.45 224.88,201.27 224.44,201.10 224.00,200.92 223.56,200.74 223.12,200.56 222.68,200.37 222.24,200.19 221.80,200.00 221.36,199.82 220.92,199.63 220.48,199.44 220.04,199.25 219.60,199.06 219.16,198.86 218.72,198.67 218.28,198.47 217.84,198.27 217.40,198.07 216.96,197.87 216.52,197.67 216.08,197.46 215.64,197.26 215.20,197.05 214.76,196.84 214.32,196.63 213.89,196.42 213.45,196.21 213.01,196.00 212.57,195.78 212.13,195.56 211.69,195.34 211.25,195.12 210.81,194.90 210.37,194.68 209.93,194.46 209.49,194.23 209.05,194.00 208.61,193.77 208.17,193.54 207.73,193.31 207.29,193.08 206.85,192.85 206.41,192.61 205.97,192.37 205.53,192.13 205.09,191.89 204.65,191.65 204.21,191.41 203.77,191.16 203.33,190.92 202.89,190.67 202.45,190.42 202.01,190.17 201.58,189.92 201.14,189.67 200.70,189.41 200.26,189.16 199.82,188.90 199.38,188.64 198.94,188.38 198.50,188.12 198.06,187.86 197.62,187.59 197.18,187.33 196.74,187.06 196.30,186.79 195.86,186.52 195.42,186.25 194.98,185.98 194.54,185.70 194.10,185.43 193.66,185.15 193.22,184.87 192.78,184.59 192.34,184.31 191.90,184.03 191.46,183.75 191.02,183.46 190.58,183.17 190.14,182.89 189.70,182.60 189.27,182.31 188.83,182.02 188.39,181.72 187.95,181.43 187.51,181.13 187.07,180.84 186.63,180.54 186.19,180.24 185.75,179.94 185.31,179.64 184.87,179.33 184.43,179.03 183.99,178.72 183.55,178.42 183.11,178.11 182.67,177.80 182.23,177.49 181.79,177.18 181.35,176.87 180.91,176.55 180.47,176.24 180.03,175.92 179.59,175.60 179.15,175.28 178.71,174.96 178.27,174.64 177.83,174.32 177.39,174.00 176.96,173.67 176.52,173.35 176.08,173.02 175.64,172.69 175.20,172.36 174.76,172.03 174.32,171.70 173.88,171.37 173.44,171.04 173.00,170.70 172.56,170.37 172.12,170.03 171.68,169.70 171.24,169.36 170.80,169.02 170.36,168.68 169.92,168.34 169.48,168.00 169.04,167.65 168.60,167.31 168.16,166.97 167.72,166.62 167.28,166.27 166.84,165.93 166.40,165.58 165.96,165.23 165.52,164.88 165.08,164.53 164.65,164.18 164.21,163.82 163.77,163.47 163.33,163.12 162.89,162.76 162.45,162.41 162.01,162.05 161.57,161.69 161.13,161.33 160.69,160.97 160.25,160.62 159.81,160.26 159.37,159.89 158.93,159.53 158.49,159.17 158.05,158.81 157.61,158.44 157.17,158.08 156.73,157.71 156.29,157.35 155.85,156.98 155.41,156.62 154.97,156.25 154.53,155.88 154.09,155.51 153.65,155.14 153.21,154.77 152.77,154.40 152.34,154.03 151.90,153.66 151.46,153.29 151.02,152.92 150.58,152.55 150.14,152.17 149.70,151.80 149.26,151.43 148.82,151.05 148.38,150.68 147.94,150.30 147.50,149.93 147.06,149.55 146.62,149.18 146.18,148.80 145.74,148.42 145.30,148.04 144.86,147.67 144.42,147.29 143.98,146.91 143.54,146.53 143.10,146.15 142.66,145.78 142.22,145.40 141.78,145.02 141.34,144.64 140.90,144.26 140.46,143.88 140.02,143.50 139.59,143.12 139.15,142.74 138.71,142.36 138.27,141.98 137.83,141.59 137.39,141.21 136.95,140.83 136.51,140.45 136.07,140.07 135.63,139.69 135.19,139.31 134.75,138.93 134.31,138.54 133.87,138.16 133.43,137.78 132.99,137.40 132.55,137.02 132.11,136.64 131.67,136.25 131.23,135.87 130.79,135.49 130.35,135.11 129.91,134.73 129.47,134.35 129.03,133.97 128.59,133.59 128.15,133.21 127.71,132.82 127.28,132.44 126.84,132.06 126.40,131.68 125.96,131.30 125.52,130.92 125.08,130.54 124.64,130.16 124.20,129.79 123.76,129.41 123.32,129.03 122.88,128.65 122.44,128.27 122.00,127.89 121.56,127.51 121.12,127.14 120.68,126.76 120.24,126.38 119.80,126.01 119.36,125.63 118.92,125.25 118.48,124.88 118.04,124.50 117.60,124.13 117.16,123.75 116.72,123.38 116.28,123.01 115.84,122.63 115.40,122.26 114.97,121.89 114.53,121.51 114.09,121.14 113.65,120.77 113.21,120.40 112.77,120.03 112.33,119.66 111.89,119.29 111.45,118.92 111.01,118.55 110.57,118.19 110.13,117.82 109.69,117.45 109.25,117.08 108.81,116.72 108.37,116.35 107.93,115.99 107.49,115.62 107.05,115.26 106.61,114.90 106.17,114.53 105.73,114.17 105.29,113.81 104.85,113.45 104.41,113.09 103.97,112.73 103.53,112.37 103.09,112.01 102.66,111.65 102.22,111.30 101.78,110.94 101.34,110.59 100.90,110.23 100.46,109.88 100.02,109.52 99.58,109.17 99.14,108.82 98.70,108.46 98.26,108.11 97.82,107.76 97.38,107.41 96.94,107.06 96.50,106.72 96.06,106.37 95.62,106.02 95.18,105.67 94.74,105.33 94.30,104.98 93.86,104.64 93.42,104.30 92.98,103.95 92.54,103.61 92.10,103.27 91.66,102.93 91.22,102.59 90.78,102.25 90.35,101.92 89.91,101.58 89.47,101.24 89.03,100.91 88.59,100.57 88.15,100.24 87.71,99.91 87.27,99.57 86.83,99.24 86.39,98.91 85.95,98.58 85.51,98.25 85.07,97.93 84.63,97.60 84.19,97.27 83.75,96.95 83.31,96.62 82.87,96.30 82.43,95.98 81.99,95.65 81.55,95.33 81.11,95.01 80.67,94.69 80.23,94.38 79.79,94.06 79.35,93.74 78.91,93.43 78.47,93.11 78.04,92.80 77.60,92.48 77.16,92.17 76.72,91.86 76.28,91.55 75.84,91.24 75.40,90.93 74.96,90.62 74.52,90.32 74.08,90.01 73.64,89.71 73.20,89.40 72.76,89.10 72.32,88.80 71.88,88.50 71.44,88.20 71.00,87.90 70.56,87.60 70.12,87.30 69.68,87.01 69.24,86.71 68.80,86.42 68.36,86.12 67.92,85.83 67.48,85.54 67.04,85.25 66.60,84.96 66.16,84.67 65.73,84.38 65.29,84.09 64.85,83.81 64.41,83.52 63.97,83.24 63.53,82.95 63.09,82.67 62.65,82.39 62.21,82.11 61.77,81.83 61.33,81.55 60.89,81.28 60.45,81.00 60.01,80.72 59.57,80.45 59.13,80.18 58.69,79.90 58.25,79.63 57.81,79.36 57.37,79.09 56.93,78.82 56.49,78.56 56.05,78.29 55.61,78.02 55.17,77.76 54.73,77.50 54.29,77.23 53.85,76.97 53.42,76.71 52.98,76.45 52.54,76.19 52.10,75.93 51.66,75.68 51.22,75.42 50.78,75.17 50.34,74.91 49.90,74.66 49.46,74.41 49.02,74.16 48.58,73.91 48.14,73.66 47.70,73.41 47.26,73.16 46.82,72.92 46.38,72.67 45.94,72.43 45.50,72.18 45.06,71.94 44.62,71.70 44.18,71.46 43.74,71.22 43.30,70.98 42.86,70.75 42.42,70.51 41.98,70.27 41.54,70.04 41.11,69.81 40.67,69.57 40.23,69.34 39.79,69.11 "
       style="stroke:none;stroke-width:1.07;stroke-linecap:butt"
       id="polyline18421" />
    <polygon
       points="40.67,35.45 41.11,35.56 41.54,35.68 41.98,35.8 42.42,35.92 42.86,36.03 43.3,36.15 43.74,36.27 44.18,36.39 44.62,36.51 45.06,36.63 45.5,36.75 45.94,36.88 46.38,37 46.82,37.12 47.26,37.24 47.7,37.37 48.14,37.49 48.58,37.61 49.02,37.74 49.46,37.87 49.9,37.99 50.34,38.12 50.78,38.24 51.22,38.37 51.66,38.5 52.1,38.63 52.54,38.75 52.98,38.88 53.42,39.01 53.85,39.14 54.29,39.27 54.73,39.4 55.17,39.54 55.61,39.67 56.05,39.8 56.49,39.93 56.93,40.06 57.37,40.2 57.81,40.33 58.25,40.47 58.69,40.6 59.13,40.74 59.57,40.87 60.01,41.01 60.45,41.14 60.89,41.28 61.33,41.42 61.77,41.56 62.21,41.7 62.65,41.83 63.09,41.97 63.53,42.11 63.97,42.25 64.41,42.39 64.85,42.53 65.29,42.68 65.73,42.82 66.16,42.96 66.6,43.1 67.04,43.24 67.48,43.39 67.92,43.53 68.36,43.68 68.8,43.82 69.24,43.97 69.68,44.11 70.12,44.26 70.56,44.4 71,44.55 71.44,44.7 71.88,44.85 72.32,44.99 72.76,45.14 73.2,45.29 73.64,45.44 74.08,45.59 74.52,45.74 74.96,45.89 75.4,46.04 75.84,46.19 76.28,46.34 76.72,46.49 77.16,46.65 77.6,46.8 78.04,46.95 78.47,47.11 78.91,47.26 79.35,47.41 79.79,47.57 80.23,47.72 80.67,47.88 81.11,48.03 81.55,48.19 81.99,48.35 82.43,48.5 82.87,48.66 83.31,48.82 83.75,48.97 84.19,49.13 84.63,49.29 85.07,49.45 85.51,49.61 85.95,49.77 86.39,49.93 86.83,50.09 87.27,50.25 87.71,50.41 88.15,50.57 88.59,50.73 89.03,50.9 89.47,51.06 89.91,51.22 90.35,51.38 90.78,51.55 91.22,51.71 91.66,51.87 92.1,52.04 92.54,52.2 92.98,52.37 93.42,52.53 93.86,52.7 94.3,52.86 94.74,53.03 95.18,53.2 95.62,53.36 96.06,53.53 96.5,53.7 96.94,53.86 97.38,54.03 97.82,54.2 98.26,54.37 98.7,54.54 99.14,54.71 99.58,54.88 100.02,55.05 100.46,55.22 100.9,55.39 101.34,55.56 101.78,55.73 102.22,55.9 102.66,56.07 103.09,56.24 103.53,56.41 103.97,56.58 104.41,56.76 104.85,56.93 105.29,57.1 105.73,57.27 106.17,57.45 106.61,57.62 107.05,57.8 107.49,57.97 107.93,58.14 108.37,58.32 108.81,58.49 109.25,58.67 109.69,58.84 110.13,59.02 110.57,59.19 111.01,59.37 111.45,59.55 111.89,59.72 112.33,59.9 112.77,60.07 113.21,60.25 113.65,60.43 114.09,60.61 114.53,60.78 114.97,60.96 115.4,61.14 115.84,61.32 116.28,61.5 116.72,61.67 117.16,61.85 117.6,62.03 118.04,62.21 118.48,62.39 118.92,62.57 119.36,62.75 119.8,62.93 120.24,63.11 120.68,63.29 121.12,63.47 121.56,63.65 122,63.83 122.44,64.01 122.88,64.19 123.32,64.37 123.76,64.55 124.2,64.74 124.64,64.92 125.08,65.1 125.52,65.28 125.96,65.46 126.4,65.64 126.84,65.83 127.28,66.01 127.71,66.19 128.15,66.37 128.59,66.56 129.03,66.74 129.47,66.92 129.91,67.11 130.35,67.29 130.79,67.47 131.23,67.66 131.67,67.84 132.11,68.02 132.55,68.21 132.99,68.39 133.43,68.58 133.87,68.76 134.31,68.95 134.75,69.13 135.19,69.31 135.63,69.5 136.07,69.68 136.51,69.87 136.95,70.05 137.39,70.24 137.83,70.42 138.27,70.61 138.71,70.79 139.15,70.98 139.59,71.16 140.02,71.35 140.46,71.54 140.9,71.72 141.34,71.91 141.78,72.09 142.22,72.28 142.66,72.47 143.1,72.65 143.54,72.84 143.98,73.02 144.42,73.21 144.86,73.4 145.3,73.58 145.74,73.77 146.18,73.96 146.62,74.14 147.06,74.33 147.5,74.52 147.94,74.7 148.38,74.89 148.82,75.08 149.26,75.26 149.7,75.45 150.14,75.64 150.58,75.82 151.02,76.01 151.46,76.2 151.9,76.39 152.34,76.57 152.77,76.76 153.21,76.95 153.65,77.13 154.09,77.32 154.53,77.51 154.97,77.7 155.41,77.88 155.85,78.07 156.29,78.26 156.73,78.45 157.17,78.63 157.61,78.82 158.05,79.01 158.49,79.2 158.93,79.38 159.37,79.57 159.81,79.76 160.25,79.95 160.69,80.13 161.13,80.32 161.57,80.51 162.01,80.7 162.45,80.88 162.89,81.07 163.33,81.26 163.77,81.45 164.21,81.64 164.65,81.82 165.08,82.01 165.52,82.2 165.96,82.39 166.4,82.57 166.84,82.76 167.28,82.95 167.72,83.14 168.16,83.32 168.6,83.51 169.04,83.7 169.48,83.89 169.92,84.08 170.36,84.26 170.8,84.45 171.24,84.64 171.68,84.83 172.12,85.01 172.56,85.2 173,85.39 173.44,85.58 173.88,85.76 174.32,85.95 174.76,86.14 175.2,86.33 175.64,86.51 176.08,86.7 176.52,86.89 176.96,87.08 177.39,87.26 177.83,87.45 178.27,87.64 178.71,87.83 179.15,88.01 179.59,88.2 180.03,88.39 180.47,88.58 180.91,88.76 181.35,88.95 181.79,89.14 182.23,89.33 182.67,89.51 183.11,89.7 183.55,89.89 183.99,90.07 184.43,90.26 184.87,90.45 185.31,90.64 185.75,90.82 186.19,91.01 186.63,91.2 187.07,91.38 187.51,91.57 187.95,91.76 188.39,91.94 188.83,92.13 189.27,92.32 189.7,92.5 190.14,92.69 190.58,92.88 191.02,93.06 191.46,93.25 191.9,93.44 192.34,93.62 192.78,93.81 193.22,94 193.66,94.18 194.1,94.37 194.54,94.56 194.98,94.74 195.42,94.93 195.86,95.12 196.3,95.3 196.74,95.49 197.18,95.67 197.62,95.86 198.06,96.05 198.5,96.23 198.94,96.42 199.38,96.61 199.82,96.79 200.26,96.98 200.7,97.16 201.14,97.35 201.58,97.54 202.01,97.72 202.45,97.91 202.89,98.09 203.33,98.28 203.77,98.46 204.21,98.65 204.65,98.83 205.09,99.02 205.53,99.21 205.97,99.39 206.41,99.58 206.85,99.76 207.29,99.95 207.73,100.13 208.17,100.32 208.61,100.5 209.05,100.69 209.49,100.87 209.93,101.06 210.37,101.24 210.81,101.43 211.25,101.61 211.69,101.8 212.13,101.98 212.57,102.17 213.01,102.35 213.45,102.54 213.89,102.72 214.32,102.91 214.76,103.09 215.2,103.28 215.64,103.46 216.08,103.65 216.52,103.83 216.96,104.02 217.4,104.2 217.84,104.38 218.28,104.57 218.72,104.75 219.16,104.94 219.6,105.12 220.04,105.31 220.48,105.49 220.92,105.67 221.36,105.86 221.8,106.04 222.24,106.23 222.68,106.41 223.12,106.59 223.56,106.78 224,106.96 224.44,107.14 224.88,107.33 225.32,107.51 225.76,107.7 226.2,107.88 226.63,108.06 227.07,108.25 227.51,108.43 227.95,108.61 228.39,108.8 228.83,108.98 229.27,109.16 229.71,109.35 230.15,109.53 230.59,109.71 231.03,109.89 231.47,110.08 231.91,110.26 232.35,110.44 232.79,110.63 233.23,110.81 233.67,110.99 234.11,111.17 234.55,111.36 234.99,111.54 235.43,111.72 235.87,111.9 236.31,112.09 236.75,112.27 237.19,112.45 237.63,112.63 238.07,112.82 238.51,113 238.94,113.18 239.38,113.36 239.82,113.54 240.26,113.73 240.7,113.91 241.14,114.09 241.58,114.27 242.02,114.45 242.46,114.63 242.9,114.82 243.34,115 243.78,115.18 244.22,115.36 244.66,115.54 245.1,115.72 245.54,115.9 245.98,116.09 246.42,116.27 246.86,116.45 247.3,116.63 247.74,116.81 248.18,116.99 248.62,117.17 249.06,117.35 249.5,117.53 249.94,117.71 250.38,117.89 250.82,118.07 251.25,118.25 251.69,118.44 252.13,118.62 252.57,118.8 253.01,118.98 253.45,119.16 253.89,119.34 254.33,119.52 254.77,119.7 255.21,119.88 255.65,120.06 256.09,120.23 256.53,120.41 256.97,120.59 257.41,120.77 257.85,120.95 258.29,121.13 258.73,121.31 259.17,121.49 259.61,121.67 260.05,121.85 260.49,122.03 260.93,122.21 261.37,122.38 261.81,122.56 262.25,122.74 262.69,122.92 263.13,123.1 263.56,123.28 264,123.46 264.44,123.63 264.88,123.81 265.32,123.99 265.76,124.17 266.2,124.35 266.64,124.52 266.64,203.48 266.2,203.35 265.76,203.22 265.32,203.08 264.88,202.95 264.44,202.82 264,202.69 263.56,202.55 263.13,202.42 262.69,202.28 262.25,202.15 261.81,202.01 261.37,201.88 260.93,201.74 260.49,201.6 260.05,201.46 259.61,201.32 259.17,201.18 258.73,201.04 258.29,200.9 257.85,200.76 257.41,200.62 256.97,200.48 256.53,200.34 256.09,200.19 255.65,200.05 255.21,199.9 254.77,199.76 254.33,199.61 253.89,199.47 253.45,199.32 253.01,199.17 252.57,199.03 252.13,198.88 251.69,198.73 251.25,198.58 250.82,198.43 250.38,198.28 249.94,198.13 249.5,197.98 249.06,197.83 248.62,197.67 248.18,197.52 247.74,197.37 247.3,197.21 246.86,197.06 246.42,196.9 245.98,196.75 245.54,196.59 245.1,196.43 244.66,196.28 244.22,196.12 243.78,195.96 243.34,195.8 242.9,195.64 242.46,195.48 242.02,195.32 241.58,195.16 241.14,195 240.7,194.84 240.26,194.67 239.82,194.51 239.38,194.35 238.94,194.18 238.51,194.02 238.07,193.85 237.63,193.69 237.19,193.52 236.75,193.35 236.31,193.19 235.87,193.02 235.43,192.85 234.99,192.68 234.55,192.51 234.11,192.34 233.67,192.17 233.23,192 232.79,191.83 232.35,191.66 231.91,191.49 231.47,191.32 231.03,191.14 230.59,190.97 230.15,190.8 229.71,190.62 229.27,190.45 228.83,190.27 228.39,190.1 227.95,189.92 227.51,189.74 227.07,189.57 226.63,189.39 226.2,189.21 225.76,189.03 225.32,188.85 224.88,188.67 224.44,188.49 224,188.31 223.56,188.13 223.12,187.95 222.68,187.77 222.24,187.59 221.8,187.4 221.36,187.22 220.92,187.04 220.48,186.85 220.04,186.67 219.6,186.49 219.16,186.3 218.72,186.12 218.28,185.93 217.84,185.74 217.4,185.56 216.96,185.37 216.52,185.18 216.08,184.99 215.64,184.81 215.2,184.62 214.76,184.43 214.32,184.24 213.89,184.05 213.45,183.86 213.01,183.67 212.57,183.48 212.13,183.28 211.69,183.09 211.25,182.9 210.81,182.71 210.37,182.51 209.93,182.32 209.49,182.13 209.05,181.93 208.61,181.74 208.17,181.54 207.73,181.35 207.29,181.15 206.85,180.96 206.41,180.76 205.97,180.57 205.53,180.37 205.09,180.17 204.65,179.97 204.21,179.78 203.77,179.58 203.33,179.38 202.89,179.18 202.45,178.98 202.01,178.78 201.58,178.58 201.14,178.38 200.7,178.18 200.26,177.98 199.82,177.78 199.38,177.58 198.94,177.38 198.5,177.18 198.06,176.97 197.62,176.77 197.18,176.57 196.74,176.37 196.3,176.16 195.86,175.96 195.42,175.76 194.98,175.55 194.54,175.35 194.1,175.14 193.66,174.94 193.22,174.73 192.78,174.53 192.34,174.32 191.9,174.12 191.46,173.91 191.02,173.7 190.58,173.5 190.14,173.29 189.7,173.08 189.27,172.88 188.83,172.67 188.39,172.46 187.95,172.25 187.51,172.05 187.07,171.84 186.63,171.63 186.19,171.42 185.75,171.21 185.31,171 184.87,170.79 184.43,170.58 183.99,170.37 183.55,170.16 183.11,169.95 182.67,169.74 182.23,169.53 181.79,169.32 181.35,169.11 180.91,168.9 180.47,168.69 180.03,168.48 179.59,168.27 179.15,168.06 178.71,167.85 178.27,167.63 177.83,167.42 177.39,167.21 176.96,167 176.52,166.79 176.08,166.57 175.64,166.36 175.2,166.15 174.76,165.94 174.32,165.72 173.88,165.51 173.44,165.3 173,165.08 172.56,164.87 172.12,164.66 171.68,164.44 171.24,164.23 170.8,164.01 170.36,163.8 169.92,163.59 169.48,163.37 169.04,163.16 168.6,162.94 168.16,162.73 167.72,162.52 167.28,162.3 166.84,162.09 166.4,161.87 165.96,161.66 165.52,161.44 165.08,161.23 164.65,161.01 164.21,160.8 163.77,160.58 163.33,160.37 162.89,160.15 162.45,159.94 162.01,159.72 161.57,159.51 161.13,159.29 160.69,159.08 160.25,158.86 159.81,158.65 159.37,158.43 158.93,158.22 158.49,158 158.05,157.79 157.61,157.57 157.17,157.36 156.73,157.14 156.29,156.93 155.85,156.71 155.41,156.5 154.97,156.28 154.53,156.07 154.09,155.85 153.65,155.64 153.21,155.42 152.77,155.21 152.34,154.99 151.9,154.77 151.46,154.56 151.02,154.34 150.58,154.13 150.14,153.91 149.7,153.7 149.26,153.48 148.82,153.27 148.38,153.05 147.94,152.84 147.5,152.63 147.06,152.41 146.62,152.2 146.18,151.98 145.74,151.77 145.3,151.55 144.86,151.34 144.42,151.12 143.98,150.91 143.54,150.69 143.1,150.48 142.66,150.27 142.22,150.05 141.78,149.84 141.34,149.62 140.9,149.41 140.46,149.2 140.02,148.98 139.59,148.77 139.15,148.56 138.71,148.34 138.27,148.13 137.83,147.92 137.39,147.7 136.95,147.49 136.51,147.28 136.07,147.06 135.63,146.85 135.19,146.64 134.75,146.43 134.31,146.21 133.87,146 133.43,145.79 132.99,145.58 132.55,145.37 132.11,145.15 131.67,144.94 131.23,144.73 130.79,144.52 130.35,144.31 129.91,144.1 129.47,143.88 129.03,143.67 128.59,143.46 128.15,143.25 127.71,143.04 127.28,142.83 126.84,142.62 126.4,142.41 125.96,142.2 125.52,141.99 125.08,141.78 124.64,141.57 124.2,141.36 123.76,141.15 123.32,140.94 122.88,140.73 122.44,140.52 122,140.31 121.56,140.11 121.12,139.9 120.68,139.69 120.24,139.48 119.8,139.27 119.36,139.06 118.92,138.86 118.48,138.65 118.04,138.44 117.6,138.23 117.16,138.03 116.72,137.82 116.28,137.61 115.84,137.4 115.4,137.2 114.97,136.99 114.53,136.79 114.09,136.58 113.65,136.37 113.21,136.17 112.77,135.96 112.33,135.76 111.89,135.55 111.45,135.35 111.01,135.14 110.57,134.94 110.13,134.73 109.69,134.53 109.25,134.32 108.81,134.12 108.37,133.91 107.93,133.71 107.49,133.51 107.05,133.3 106.61,133.1 106.17,132.9 105.73,132.69 105.29,132.49 104.85,132.29 104.41,132.09 103.97,131.88 103.53,131.68 103.09,131.48 102.66,131.28 102.22,131.08 101.78,130.87 101.34,130.67 100.9,130.47 100.46,130.27 100.02,130.07 99.58,129.87 99.14,129.67 98.7,129.47 98.26,129.27 97.82,129.07 97.38,128.87 96.94,128.67 96.5,128.47 96.06,128.27 95.62,128.07 95.18,127.87 94.74,127.68 94.3,127.48 93.86,127.28 93.42,127.08 92.98,126.88 92.54,126.69 92.1,126.49 91.66,126.29 91.22,126.09 90.78,125.9 90.35,125.7 89.91,125.5 89.47,125.31 89.03,125.11 88.59,124.91 88.15,124.72 87.71,124.52 87.27,124.33 86.83,124.13 86.39,123.94 85.95,123.74 85.51,123.55 85.07,123.35 84.63,123.16 84.19,122.97 83.75,122.77 83.31,122.58 82.87,122.38 82.43,122.19 81.99,122 81.55,121.8 81.11,121.61 80.67,121.42 80.23,121.23 79.79,121.03 79.35,120.84 78.91,120.65 78.47,120.46 78.04,120.27 77.6,120.08 77.16,119.89 76.72,119.69 76.28,119.5 75.84,119.31 75.4,119.12 74.96,118.93 74.52,118.74 74.08,118.55 73.64,118.36 73.2,118.17 72.76,117.98 72.32,117.8 71.88,117.61 71.44,117.42 71,117.23 70.56,117.04 70.12,116.85 69.68,116.67 69.24,116.48 68.8,116.29 68.36,116.1 67.92,115.92 67.48,115.73 67.04,115.54 66.6,115.36 66.16,115.17 65.73,114.98 65.29,114.8 64.85,114.61 64.41,114.43 63.97,114.24 63.53,114.06 63.09,113.87 62.65,113.69 62.21,113.5 61.77,113.32 61.33,113.13 60.89,112.95 60.45,112.76 60.01,112.58 59.57,112.4 59.13,112.21 58.69,112.03 58.25,111.85 57.81,111.67 57.37,111.48 56.93,111.3 56.49,111.12 56.05,110.94 55.61,110.75 55.17,110.57 54.73,110.39 54.29,110.21 53.85,110.03 53.42,109.85 52.98,109.67 52.54,109.49 52.1,109.31 51.66,109.13 51.22,108.95 50.78,108.77 50.34,108.59 49.9,108.41 49.46,108.23 49.02,108.05 48.58,107.87 48.14,107.69 47.7,107.51 47.26,107.34 46.82,107.16 46.38,106.98 45.94,106.8 45.5,106.63 45.06,106.45 44.62,106.27 44.18,106.1 43.74,105.92 43.3,105.74 42.86,105.57 42.42,105.39 41.98,105.21 41.54,105.04 41.11,104.86 40.67,104.69 40.23,104.51 39.79,104.34 39.79,35.22 40.23,35.33 "
       style="fill:#1c8eb3;fill-opacity:0.1;stroke:none;stroke-width:0;stroke-linecap:butt"
       id="polygon18423" />
    <polyline
       points="39.79,35.22 40.23,35.33 40.67,35.45 41.11,35.56 41.54,35.68 41.98,35.80 42.42,35.92 42.86,36.03 43.30,36.15 43.74,36.27 44.18,36.39 44.62,36.51 45.06,36.63 45.50,36.75 45.94,36.88 46.38,37.00 46.82,37.12 47.26,37.24 47.70,37.37 48.14,37.49 48.58,37.61 49.02,37.74 49.46,37.87 49.90,37.99 50.34,38.12 50.78,38.24 51.22,38.37 51.66,38.50 52.10,38.63 52.54,38.75 52.98,38.88 53.42,39.01 53.85,39.14 54.29,39.27 54.73,39.40 55.17,39.54 55.61,39.67 56.05,39.80 56.49,39.93 56.93,40.06 57.37,40.20 57.81,40.33 58.25,40.47 58.69,40.60 59.13,40.74 59.57,40.87 60.01,41.01 60.45,41.14 60.89,41.28 61.33,41.42 61.77,41.56 62.21,41.70 62.65,41.83 63.09,41.97 63.53,42.11 63.97,42.25 64.41,42.39 64.85,42.53 65.29,42.68 65.73,42.82 66.16,42.96 66.60,43.10 67.04,43.24 67.48,43.39 67.92,43.53 68.36,43.68 68.80,43.82 69.24,43.97 69.68,44.11 70.12,44.26 70.56,44.40 71.00,44.55 71.44,44.70 71.88,44.85 72.32,44.99 72.76,45.14 73.20,45.29 73.64,45.44 74.08,45.59 74.52,45.74 74.96,45.89 75.40,46.04 75.84,46.19 76.28,46.34 76.72,46.49 77.16,46.65 77.60,46.80 78.04,46.95 78.47,47.11 78.91,47.26 79.35,47.41 79.79,47.57 80.23,47.72 80.67,47.88 81.11,48.03 81.55,48.19 81.99,48.35 82.43,48.50 82.87,48.66 83.31,48.82 83.75,48.97 84.19,49.13 84.63,49.29 85.07,49.45 85.51,49.61 85.95,49.77 86.39,49.93 86.83,50.09 87.27,50.25 87.71,50.41 88.15,50.57 88.59,50.73 89.03,50.90 89.47,51.06 89.91,51.22 90.35,51.38 90.78,51.55 91.22,51.71 91.66,51.87 92.10,52.04 92.54,52.20 92.98,52.37 93.42,52.53 93.86,52.70 94.30,52.86 94.74,53.03 95.18,53.20 95.62,53.36 96.06,53.53 96.50,53.70 96.94,53.86 97.38,54.03 97.82,54.20 98.26,54.37 98.70,54.54 99.14,54.71 99.58,54.88 100.02,55.05 100.46,55.22 100.90,55.39 101.34,55.56 101.78,55.73 102.22,55.90 102.66,56.07 103.09,56.24 103.53,56.41 103.97,56.58 104.41,56.76 104.85,56.93 105.29,57.10 105.73,57.27 106.17,57.45 106.61,57.62 107.05,57.80 107.49,57.97 107.93,58.14 108.37,58.32 108.81,58.49 109.25,58.67 109.69,58.84 110.13,59.02 110.57,59.19 111.01,59.37 111.45,59.55 111.89,59.72 112.33,59.90 112.77,60.07 113.21,60.25 113.65,60.43 114.09,60.61 114.53,60.78 114.97,60.96 115.40,61.14 115.84,61.32 116.28,61.50 116.72,61.67 117.16,61.85 117.60,62.03 118.04,62.21 118.48,62.39 118.92,62.57 119.36,62.75 119.80,62.93 120.24,63.11 120.68,63.29 121.12,63.47 121.56,63.65 122.00,63.83 122.44,64.01 122.88,64.19 123.32,64.37 123.76,64.55 124.20,64.74 124.64,64.92 125.08,65.10 125.52,65.28 125.96,65.46 126.40,65.64 126.84,65.83 127.28,66.01 127.71,66.19 128.15,66.37 128.59,66.56 129.03,66.74 129.47,66.92 129.91,67.11 130.35,67.29 130.79,67.47 131.23,67.66 131.67,67.84 132.11,68.02 132.55,68.21 132.99,68.39 133.43,68.58 133.87,68.76 134.31,68.95 134.75,69.13 135.19,69.31 135.63,69.50 136.07,69.68 136.51,69.87 136.95,70.05 137.39,70.24 137.83,70.42 138.27,70.61 138.71,70.79 139.15,70.98 139.59,71.16 140.02,71.35 140.46,71.54 140.90,71.72 141.34,71.91 141.78,72.09 142.22,72.28 142.66,72.47 143.10,72.65 143.54,72.84 143.98,73.02 144.42,73.21 144.86,73.40 145.30,73.58 145.74,73.77 146.18,73.96 146.62,74.14 147.06,74.33 147.50,74.52 147.94,74.70 148.38,74.89 148.82,75.08 149.26,75.26 149.70,75.45 150.14,75.64 150.58,75.82 151.02,76.01 151.46,76.20 151.90,76.39 152.34,76.57 152.77,76.76 153.21,76.95 153.65,77.13 154.09,77.32 154.53,77.51 154.97,77.70 155.41,77.88 155.85,78.07 156.29,78.26 156.73,78.45 157.17,78.63 157.61,78.82 158.05,79.01 158.49,79.20 158.93,79.38 159.37,79.57 159.81,79.76 160.25,79.95 160.69,80.13 161.13,80.32 161.57,80.51 162.01,80.70 162.45,80.88 162.89,81.07 163.33,81.26 163.77,81.45 164.21,81.64 164.65,81.82 165.08,82.01 165.52,82.20 165.96,82.39 166.40,82.57 166.84,82.76 167.28,82.95 167.72,83.14 168.16,83.32 168.60,83.51 169.04,83.70 169.48,83.89 169.92,84.08 170.36,84.26 170.80,84.45 171.24,84.64 171.68,84.83 172.12,85.01 172.56,85.20 173.00,85.39 173.44,85.58 173.88,85.76 174.32,85.95 174.76,86.14 175.20,86.33 175.64,86.51 176.08,86.70 176.52,86.89 176.96,87.08 177.39,87.26 177.83,87.45 178.27,87.64 178.71,87.83 179.15,88.01 179.59,88.20 180.03,88.39 180.47,88.58 180.91,88.76 181.35,88.95 181.79,89.14 182.23,89.33 182.67,89.51 183.11,89.70 183.55,89.89 183.99,90.07 184.43,90.26 184.87,90.45 185.31,90.64 185.75,90.82 186.19,91.01 186.63,91.20 187.07,91.38 187.51,91.57 187.95,91.76 188.39,91.94 188.83,92.13 189.27,92.32 189.70,92.50 190.14,92.69 190.58,92.88 191.02,93.06 191.46,93.25 191.90,93.44 192.34,93.62 192.78,93.81 193.22,94.00 193.66,94.18 194.10,94.37 194.54,94.56 194.98,94.74 195.42,94.93 195.86,95.12 196.30,95.30 196.74,95.49 197.18,95.67 197.62,95.86 198.06,96.05 198.50,96.23 198.94,96.42 199.38,96.61 199.82,96.79 200.26,96.98 200.70,97.16 201.14,97.35 201.58,97.54 202.01,97.72 202.45,97.91 202.89,98.09 203.33,98.28 203.77,98.46 204.21,98.65 204.65,98.83 205.09,99.02 205.53,99.21 205.97,99.39 206.41,99.58 206.85,99.76 207.29,99.95 207.73,100.13 208.17,100.32 208.61,100.50 209.05,100.69 209.49,100.87 209.93,101.06 210.37,101.24 210.81,101.43 211.25,101.61 211.69,101.80 212.13,101.98 212.57,102.17 213.01,102.35 213.45,102.54 213.89,102.72 214.32,102.91 214.76,103.09 215.20,103.28 215.64,103.46 216.08,103.65 216.52,103.83 216.96,104.02 217.40,104.20 217.84,104.38 218.28,104.57 218.72,104.75 219.16,104.94 219.60,105.12 220.04,105.31 220.48,105.49 220.92,105.67 221.36,105.86 221.80,106.04 222.24,106.23 222.68,106.41 223.12,106.59 223.56,106.78 224.00,106.96 224.44,107.14 224.88,107.33 225.32,107.51 225.76,107.70 226.20,107.88 226.63,108.06 227.07,108.25 227.51,108.43 227.95,108.61 228.39,108.80 228.83,108.98 229.27,109.16 229.71,109.35 230.15,109.53 230.59,109.71 231.03,109.89 231.47,110.08 231.91,110.26 232.35,110.44 232.79,110.63 233.23,110.81 233.67,110.99 234.11,111.17 234.55,111.36 234.99,111.54 235.43,111.72 235.87,111.90 236.31,112.09 236.75,112.27 237.19,112.45 237.63,112.63 238.07,112.82 238.51,113.00 238.94,113.18 239.38,113.36 239.82,113.54 240.26,113.73 240.70,113.91 241.14,114.09 241.58,114.27 242.02,114.45 242.46,114.63 242.90,114.82 243.34,115.00 243.78,115.18 244.22,115.36 244.66,115.54 245.10,115.72 245.54,115.90 245.98,116.09 246.42,116.27 246.86,116.45 247.30,116.63 247.74,116.81 248.18,116.99 248.62,117.17 249.06,117.35 249.50,117.53 249.94,117.71 250.38,117.89 250.82,118.07 251.25,118.25 251.69,118.44 252.13,118.62 252.57,118.80 253.01,118.98 253.45,119.16 253.89,119.34 254.33,119.52 254.77,119.70 255.21,119.88 255.65,120.06 256.09,120.23 256.53,120.41 256.97,120.59 257.41,120.77 257.85,120.95 258.29,121.13 258.73,121.31 259.17,121.49 259.61,121.67 260.05,121.85 260.49,122.03 260.93,122.21 261.37,122.38 261.81,122.56 262.25,122.74 262.69,122.92 263.13,123.10 263.56,123.28 264.00,123.46 264.44,123.63 264.88,123.81 265.32,123.99 265.76,124.17 266.20,124.35 266.64,124.52 "
       style="stroke:none;stroke-width:1.07;stroke-linecap:butt"
       id="polyline18425" />
    <polyline
       points="266.64,203.48 266.20,203.35 265.76,203.22 265.32,203.08 264.88,202.95 264.44,202.82 264.00,202.69 263.56,202.55 263.13,202.42 262.69,202.28 262.25,202.15 261.81,202.01 261.37,201.88 260.93,201.74 260.49,201.60 260.05,201.46 259.61,201.32 259.17,201.18 258.73,201.04 258.29,200.90 257.85,200.76 257.41,200.62 256.97,200.48 256.53,200.34 256.09,200.19 255.65,200.05 255.21,199.90 254.77,199.76 254.33,199.61 253.89,199.47 253.45,199.32 253.01,199.17 252.57,199.03 252.13,198.88 251.69,198.73 251.25,198.58 250.82,198.43 250.38,198.28 249.94,198.13 249.50,197.98 249.06,197.83 248.62,197.67 248.18,197.52 247.74,197.37 247.30,197.21 246.86,197.06 246.42,196.90 245.98,196.75 245.54,196.59 245.10,196.43 244.66,196.28 244.22,196.12 243.78,195.96 243.34,195.80 242.90,195.64 242.46,195.48 242.02,195.32 241.58,195.16 241.14,195.00 240.70,194.84 240.26,194.67 239.82,194.51 239.38,194.35 238.94,194.18 238.51,194.02 238.07,193.85 237.63,193.69 237.19,193.52 236.75,193.35 236.31,193.19 235.87,193.02 235.43,192.85 234.99,192.68 234.55,192.51 234.11,192.34 233.67,192.17 233.23,192.00 232.79,191.83 232.35,191.66 231.91,191.49 231.47,191.32 231.03,191.14 230.59,190.97 230.15,190.80 229.71,190.62 229.27,190.45 228.83,190.27 228.39,190.10 227.95,189.92 227.51,189.74 227.07,189.57 226.63,189.39 226.20,189.21 225.76,189.03 225.32,188.85 224.88,188.67 224.44,188.49 224.00,188.31 223.56,188.13 223.12,187.95 222.68,187.77 222.24,187.59 221.80,187.40 221.36,187.22 220.92,187.04 220.48,186.85 220.04,186.67 219.60,186.49 219.16,186.30 218.72,186.12 218.28,185.93 217.84,185.74 217.40,185.56 216.96,185.37 216.52,185.18 216.08,184.99 215.64,184.81 215.20,184.62 214.76,184.43 214.32,184.24 213.89,184.05 213.45,183.86 213.01,183.67 212.57,183.48 212.13,183.28 211.69,183.09 211.25,182.90 210.81,182.71 210.37,182.51 209.93,182.32 209.49,182.13 209.05,181.93 208.61,181.74 208.17,181.54 207.73,181.35 207.29,181.15 206.85,180.96 206.41,180.76 205.97,180.57 205.53,180.37 205.09,180.17 204.65,179.97 204.21,179.78 203.77,179.58 203.33,179.38 202.89,179.18 202.45,178.98 202.01,178.78 201.58,178.58 201.14,178.38 200.70,178.18 200.26,177.98 199.82,177.78 199.38,177.58 198.94,177.38 198.50,177.18 198.06,176.97 197.62,176.77 197.18,176.57 196.74,176.37 196.30,176.16 195.86,175.96 195.42,175.76 194.98,175.55 194.54,175.35 194.10,175.14 193.66,174.94 193.22,174.73 192.78,174.53 192.34,174.32 191.90,174.12 191.46,173.91 191.02,173.70 190.58,173.50 190.14,173.29 189.70,173.08 189.27,172.88 188.83,172.67 188.39,172.46 187.95,172.25 187.51,172.05 187.07,171.84 186.63,171.63 186.19,171.42 185.75,171.21 185.31,171.00 184.87,170.79 184.43,170.58 183.99,170.37 183.55,170.16 183.11,169.95 182.67,169.74 182.23,169.53 181.79,169.32 181.35,169.11 180.91,168.90 180.47,168.69 180.03,168.48 179.59,168.27 179.15,168.06 178.71,167.85 178.27,167.63 177.83,167.42 177.39,167.21 176.96,167.00 176.52,166.79 176.08,166.57 175.64,166.36 175.20,166.15 174.76,165.94 174.32,165.72 173.88,165.51 173.44,165.30 173.00,165.08 172.56,164.87 172.12,164.66 171.68,164.44 171.24,164.23 170.80,164.01 170.36,163.80 169.92,163.59 169.48,163.37 169.04,163.16 168.60,162.94 168.16,162.73 167.72,162.52 167.28,162.30 166.84,162.09 166.40,161.87 165.96,161.66 165.52,161.44 165.08,161.23 164.65,161.01 164.21,160.80 163.77,160.58 163.33,160.37 162.89,160.15 162.45,159.94 162.01,159.72 161.57,159.51 161.13,159.29 160.69,159.08 160.25,158.86 159.81,158.65 159.37,158.43 158.93,158.22 158.49,158.00 158.05,157.79 157.61,157.57 157.17,157.36 156.73,157.14 156.29,156.93 155.85,156.71 155.41,156.50 154.97,156.28 154.53,156.07 154.09,155.85 153.65,155.64 153.21,155.42 152.77,155.21 152.34,154.99 151.90,154.77 151.46,154.56 151.02,154.34 150.58,154.13 150.14,153.91 149.70,153.70 149.26,153.48 148.82,153.27 148.38,153.05 147.94,152.84 147.50,152.63 147.06,152.41 146.62,152.20 146.18,151.98 145.74,151.77 145.30,151.55 144.86,151.34 144.42,151.12 143.98,150.91 143.54,150.69 143.10,150.48 142.66,150.27 142.22,150.05 141.78,149.84 141.34,149.62 140.90,149.41 140.46,149.20 140.02,148.98 139.59,148.77 139.15,148.56 138.71,148.34 138.27,148.13 137.83,147.92 137.39,147.70 136.95,147.49 136.51,147.28 136.07,147.06 135.63,146.85 135.19,146.64 134.75,146.43 134.31,146.21 133.87,146.00 133.43,145.79 132.99,145.58 132.55,145.37 132.11,145.15 131.67,144.94 131.23,144.73 130.79,144.52 130.35,144.31 129.91,144.10 129.47,143.88 129.03,143.67 128.59,143.46 128.15,143.25 127.71,143.04 127.28,142.83 126.84,142.62 126.40,142.41 125.96,142.20 125.52,141.99 125.08,141.78 124.64,141.57 124.20,141.36 123.76,141.15 123.32,140.94 122.88,140.73 122.44,140.52 122.00,140.31 121.56,140.11 121.12,139.90 120.68,139.69 120.24,139.48 119.80,139.27 119.36,139.06 118.92,138.86 118.48,138.65 118.04,138.44 117.60,138.23 117.16,138.03 116.72,137.82 116.28,137.61 115.84,137.40 115.40,137.20 114.97,136.99 114.53,136.79 114.09,136.58 113.65,136.37 113.21,136.17 112.77,135.96 112.33,135.76 111.89,135.55 111.45,135.35 111.01,135.14 110.57,134.94 110.13,134.73 109.69,134.53 109.25,134.32 108.81,134.12 108.37,133.91 107.93,133.71 107.49,133.51 107.05,133.30 106.61,133.10 106.17,132.90 105.73,132.69 105.29,132.49 104.85,132.29 104.41,132.09 103.97,131.88 103.53,131.68 103.09,131.48 102.66,131.28 102.22,131.08 101.78,130.87 101.34,130.67 100.90,130.47 100.46,130.27 100.02,130.07 99.58,129.87 99.14,129.67 98.70,129.47 98.26,129.27 97.82,129.07 97.38,128.87 96.94,128.67 96.50,128.47 96.06,128.27 95.62,128.07 95.18,127.87 94.74,127.68 94.30,127.48 93.86,127.28 93.42,127.08 92.98,126.88 92.54,126.69 92.10,126.49 91.66,126.29 91.22,126.09 90.78,125.90 90.35,125.70 89.91,125.50 89.47,125.31 89.03,125.11 88.59,124.91 88.15,124.72 87.71,124.52 87.27,124.33 86.83,124.13 86.39,123.94 85.95,123.74 85.51,123.55 85.07,123.35 84.63,123.16 84.19,122.97 83.75,122.77 83.31,122.58 82.87,122.38 82.43,122.19 81.99,122.00 81.55,121.80 81.11,121.61 80.67,121.42 80.23,121.23 79.79,121.03 79.35,120.84 78.91,120.65 78.47,120.46 78.04,120.27 77.60,120.08 77.16,119.89 76.72,119.69 76.28,119.50 75.84,119.31 75.40,119.12 74.96,118.93 74.52,118.74 74.08,118.55 73.64,118.36 73.20,118.17 72.76,117.98 72.32,117.80 71.88,117.61 71.44,117.42 71.00,117.23 70.56,117.04 70.12,116.85 69.68,116.67 69.24,116.48 68.80,116.29 68.36,116.10 67.92,115.92 67.48,115.73 67.04,115.54 66.60,115.36 66.16,115.17 65.73,114.98 65.29,114.80 64.85,114.61 64.41,114.43 63.97,114.24 63.53,114.06 63.09,113.87 62.65,113.69 62.21,113.50 61.77,113.32 61.33,113.13 60.89,112.95 60.45,112.76 60.01,112.58 59.57,112.40 59.13,112.21 58.69,112.03 58.25,111.85 57.81,111.67 57.37,111.48 56.93,111.30 56.49,111.12 56.05,110.94 55.61,110.75 55.17,110.57 54.73,110.39 54.29,110.21 53.85,110.03 53.42,109.85 52.98,109.67 52.54,109.49 52.10,109.31 51.66,109.13 51.22,108.95 50.78,108.77 50.34,108.59 49.90,108.41 49.46,108.23 49.02,108.05 48.58,107.87 48.14,107.69 47.70,107.51 47.26,107.34 46.82,107.16 46.38,106.98 45.94,106.80 45.50,106.63 45.06,106.45 44.62,106.27 44.18,106.10 43.74,105.92 43.30,105.74 42.86,105.57 42.42,105.39 41.98,105.21 41.54,105.04 41.11,104.86 40.67,104.69 40.23,104.51 39.79,104.34 "
       style="stroke:none;stroke-width:1.07;stroke-linecap:butt"
       id="polyline18427" />
  </g>
  <polyline
     points="28.44,221.69 28.44,17.44 "
     style="stroke-width:1.07;stroke-linecap:butt"
     id="polyline18431"
     clip-path="url(#clipPath20653)" />
  <text
     x="23.51"
     y="213.59"
     text-anchor="end"
     style="font-size:5px;font-family:Arial;fill:#4d4d4d"
     textLength="9.7299995"
     lengthAdjust="spacingAndGlyphs"
     id="text18433">0.00</text>
  <text
     x="23.51"
     y="167.14999"
     text-anchor="end"
     style="font-size:5px;font-family:Arial;fill:#4d4d4d"
     textLength="9.7299995"
     lengthAdjust="spacingAndGlyphs"
     id="text18435">0.25</text>
  <text
     x="23.51"
     y="120.71"
     text-anchor="end"
     style="font-size:5px;font-family:Arial;fill:#4d4d4d"
     textLength="9.7299995"
     lengthAdjust="spacingAndGlyphs"
     id="text18437">0.50</text>
  <text
     x="23.51"
     y="74.269997"
     text-anchor="end"
     style="font-size:5px;font-family:Arial;fill:#4d4d4d"
     textLength="9.7299995"
     lengthAdjust="spacingAndGlyphs"
     id="text18439">0.75</text>
  <text
     x="23.51"
     y="27.84"
     text-anchor="end"
     style="font-size:5px;font-family:Arial;fill:#4d4d4d"
     textLength="9.7299995"
     lengthAdjust="spacingAndGlyphs"
     id="text18441">1.00</text>
  <polyline
     points="25.70,211.80 28.44,211.80 "
     style="stroke:#333333;stroke-width:1.07;stroke-linecap:butt"
     id="polyline18443"
     clip-path="url(#clipPath20647)" />
  <polyline
     points="25.70,165.36 28.44,165.36 "
     style="stroke:#333333;stroke-width:1.07;stroke-linecap:butt"
     id="polyline18445"
     clip-path="url(#clipPath20641)" />
  <polyline
     points="25.70,118.92 28.44,118.92 "
     style="stroke:#333333;stroke-width:1.07;stroke-linecap:butt"
     id="polyline18447"
     clip-path="url(#clipPath20635)" />
  <polyline
     points="25.70,72.48 28.44,72.48 "
     style="stroke:#333333;stroke-width:1.07;stroke-linecap:butt"
     id="polyline18449"
     clip-path="url(#clipPath20629)" />
  <polyline
     points="25.70,26.05 28.44,26.05 "
     style="stroke:#333333;stroke-width:1.07;stroke-linecap:butt"
     id="polyline18451"
     clip-path="url(#clipPath20623)" />
  <polyline
     points="28.44,221.69 277.99,221.69 "
     style="stroke-width:1.07;stroke-linecap:butt"
     id="polyline18453"
     clip-path="url(#clipPath20617)" />
  <polyline
     points="53.20,224.43 53.20,221.69 "
     style="stroke:#333333;stroke-width:1.07;stroke-linecap:butt"
     id="polyline18455"
     clip-path="url(#clipPath20611)" />
  <polyline
     points="97.17,224.43 97.17,221.69 "
     style="stroke:#333333;stroke-width:1.07;stroke-linecap:butt"
     id="polyline18457"
     clip-path="url(#clipPath20605)" />
  <polyline
     points="141.13,224.43 141.13,221.69 "
     style="stroke:#333333;stroke-width:1.07;stroke-linecap:butt"
     id="polyline18459"
     clip-path="url(#clipPath20599)" />
  <polyline
     points="185.09,224.43 185.09,221.69 "
     style="stroke:#333333;stroke-width:1.07;stroke-linecap:butt"
     id="polyline18461"
     clip-path="url(#clipPath20593)" />
  <polyline
     points="229.06,224.43 229.06,221.69 "
     style="stroke:#333333;stroke-width:1.07;stroke-linecap:butt"
     id="polyline18463"
     clip-path="url(#clipPath20587)" />
  <polyline
     points="273.02,224.43 273.02,221.69 "
     style="stroke:#333333;stroke-width:1.07;stroke-linecap:butt"
     id="polyline18465"
     clip-path="url(#clipPath20581)" />
  <text
     x="53.200001"
     y="230.2"
     text-anchor="middle"
     style="font-size:5px;font-family:Arial;fill:#4d4d4d"
     textLength="4.4400001"
     lengthAdjust="spacingAndGlyphs"
     id="text18467">-2</text>
  <text
     x="97.169998"
     y="230.2"
     text-anchor="middle"
     style="font-size:5px;font-family:Arial;fill:#4d4d4d"
     textLength="4.4400001"
     lengthAdjust="spacingAndGlyphs"
     id="text18469">-1</text>
  <text
     x="141.13"
     y="230.2"
     text-anchor="middle"
     style="font-size:5px;font-family:Arial;fill:#4d4d4d"
     textLength="2.78"
     lengthAdjust="spacingAndGlyphs"
     id="text18471">0</text>
  <text
     x="185.09"
     y="230.2"
     text-anchor="middle"
     style="font-size:5px;font-family:Arial;fill:#4d4d4d"
     textLength="2.78"
     lengthAdjust="spacingAndGlyphs"
     id="text18473">1</text>
  <text
     x="229.06"
     y="230.2"
     text-anchor="middle"
     style="font-size:5px;font-family:Arial;fill:#4d4d4d"
     textLength="2.78"
     lengthAdjust="spacingAndGlyphs"
     id="text18475">2</text>
  <text
     x="273.01999"
     y="230.2"
     text-anchor="middle"
     style="font-size:5px;font-family:Arial;fill:#4d4d4d"
     textLength="2.78"
     lengthAdjust="spacingAndGlyphs"
     id="text18477">3</text>
  <text
     x="153.21001"
     y="238.28999"
     text-anchor="middle"
     style="font-size:6px;font-family:Arial"
     textLength="63.650002"
     lengthAdjust="spacingAndGlyphs"
     id="text18479">Feedback previous trial </text>
  <text
     x="153.21001"
     y="244.77"
     text-anchor="middle"
     style="font-size:6px;font-family:Arial"
     textLength="25.32"
     lengthAdjust="spacingAndGlyphs"
     id="text18481"> (z-score)</text>
  <text
     transform="rotate(-90,64.675,54.895)"
     text-anchor="middle"
     style="font-size:6px;font-family:Arial"
     textLength="108.63"
     lengthAdjust="spacingAndGlyphs"
     id="text18483">Probability of repeating previous strategy</text>
  <rect
     x="86.050003"
     y="257"
     width="134.34"
     height="20.99"
     style="fill:#ffffff;stroke:none;stroke-width:1.07"
     id="rect18485"
     clip-path="url(#clipPath20575)" />
  <text
     x="91.519997"
     y="269.64001"
     style="font-size:6px;font-family:Arial"
     textLength="27.09"
     lengthAdjust="spacingAndGlyphs"
     id="text18487">Treatment</text>
  <rect
     x="121.61"
     y="262.48001"
     width="11.34"
     height="10.03"
     style="fill:#ffffff;stroke:none;stroke-width:1.07"
     id="rect18489"
     clip-path="url(#clipPath20569)" />
  <line
     x1="122.74"
     y1="267.48999"
     x2="131.81"
     y2="267.48999"
     style="stroke:#dd1e88;stroke-width:2.56;stroke-linecap:butt"
     id="line18491"
     clip-path="url(#clipPath20563)" />
  <rect
     x="172.81"
     y="262.48001"
     width="11.34"
     height="10.03"
     style="fill:#ffffff;stroke:none;stroke-width:1.07"
     id="rect18493"
     clip-path="url(#clipPath20557)" />
  <line
     x1="173.94"
     y1="267.48999"
     x2="183.00999"
     y2="267.48999"
     style="stroke:#1c8eb3;stroke-width:2.56;stroke-linecap:butt"
     id="line18495"
     clip-path="url(#clipPath20551)" />
  <text
     x="135.92999"
     y="266.57999"
     style="font-size:5px;font-family:Arial"
     textLength="33.880001"
     lengthAdjust="spacingAndGlyphs"
     id="text18497">Reinforcement </text>
  <text
     x="135.92999"
     y="271.98001"
     style="font-size:5px;font-family:Arial"
     textLength="17.780001"
     lengthAdjust="spacingAndGlyphs"
     id="text18499">learning</text>
  <text
     x="187.13"
     y="266.57999"
     style="font-size:5px;font-family:Arial"
     textLength="26.389999"
     lengthAdjust="spacingAndGlyphs"
     id="text18501">Supervised </text>
  <text
     x="187.13"
     y="271.98001"
     style="font-size:5px;font-family:Arial"
     textLength="27.77"
     lengthAdjust="spacingAndGlyphs"
     id="text18503">(free choice)</text>
  <text
     x="28.440001"
     y="10.49"
     style="font-size:7px;font-family:Arial"
     textLength="73.790001"
     lengthAdjust="spacingAndGlyphs"
     id="text18505">Win-Stay, Lose-Switch</text>
  <text
     xml:space="preserve"
     transform="matrix(0.75,0,0,0.75,37.045207,9.9006431)"
     id="text18630"
     style="font-size:8px;font-family:Arial;-inkscape-font-specification:Arial;white-space:pre;shape-inside:url(#rect18632);display:inline;fill:#000000;stroke:#000000;stroke-opacity:0"><tspan
       x="53.605469"
       y="277.57713"
       id="tspan21989">Better</tspan></text>
  <text
     xml:space="preserve"
     transform="matrix(0.75,0,0,0.75,171.5596,9.5544572)"
     id="text18630-9"
     style="font-size:8px;font-family:Arial;-inkscape-font-specification:Arial;white-space:pre;shape-inside:url(#rect18632-8);display:inline;fill:#000000;stroke:#000000;stroke-opacity:0"><tspan
       x="53.605469"
       y="277.57713"
       id="tspan21991">Worse</tspan></text>
  <path
     style="fill:none;stroke:#000000;stroke-width:1.5;stroke-linecap:butt;stroke-linejoin:miter;stroke-dasharray:none;stroke-opacity:0.992347;marker-start:url(#TriangleStart);marker-end:url(#marker20408)"
     d="M 82.141211,206.86123 H 224.28879"
     id="path20376"
     sodipodi:nodetypes="cc" />
</svg>
